<svg id="Layer_5" enable-background="new 0 0 64 64" height="512" viewBox="0 0 64 64" width="512" xmlns="http://www.w3.org/2000/svg"><g><g><g><path d="m40 58v4h-24v-4c0-1.1.9-2 2-2h20c1.1 0 2 .9 2 2z" fill="#ff826e"/></g><g><path d="m23 20h4c-4.63 0-8.52 3.14-9.66 7.41-.5-.26-1.08-.41-1.68-.41-2.02 0-3.66 1.64-3.66 3.66v9.34h-4c0-3.31-2.69-6-6-6v-8c3.31 0 6-2.69 6-6h9z" fill="#b4dd7f"/></g><g><path d="m29 20h6 2c1.96 4.7 6.59 8 12 8 1 0 1.98-.11 2.92-.33l.08.33v6c-3.31 0-6 2.69-6 6h-4-15c5.52 0 10-4.48 10-10s-4.48-10-10-10z" fill="#b4dd7f"/></g><g><path d="m2 20h6c0 3.31-2.69 6-6 6z" fill="#a0d468"/></g><g><path d="m8 40h-6v-6c3.31 0 6 2.69 6 6z" fill="#a0d468"/></g><g><path d="m52 34v6h-6c0-3.31 2.69-6 6-6z" fill="#a0d468"/></g><g><path d="m27 40h-4.76c-.41-.52-.9-.99-1.44-1.4l-.8-.6-.7-7.67c-.08-.95-.52-1.78-1.18-2.37-.23-.21-.49-.4-.78-.55 1.14-4.27 5.03-7.41 9.66-7.41 5.52 0 10 4.48 10 10s-4.48 10-10 10z" fill="#fcd770"/></g><g><path d="m49 2c7.18 0 13 5.82 13 13 0 6.18-4.31 11.35-10.08 12.67-.94.22-1.92.33-2.92.33-5.41 0-10.04-3.3-12-8-.65-1.54-1-3.23-1-5 0-7.18 5.82-13 13-13z" fill="#e6e9ed"/></g><g><path d="m48 19-4.03-1.01.03-.1v-5.78l-.03-.1 8.03-2.01v10z" fill="#aab2bd"/></g><g><path d="m56 9v12l-4-1v-10z" fill="#ff826e"/></g><g><path d="m44 12.11v5.78l-.03.1-1.97-.49-2-.5v-4l3.97-.99z" fill="#ff826e"/></g><g><path d="m35 17v3h-6v-3c0-.83.34-1.58.88-2.12s1.29-.88 2.12-.88c1.66 0 3 1.34 3 3z" fill="#f0d0b4"/></g><g><path d="m29 17v3h-2-4v-3c0-.83.34-1.58.88-2.12s1.29-.88 2.12-.88c1.66 0 3 1.34 3 3z" fill="#f0d0b4"/></g><g><path d="m23 17v3h-6v-3c0-.83.34-1.58.88-2.12s1.29-.88 2.12-.88c1.66 0 3 1.34 3 3z" fill="#f0d0b4"/></g><g><path d="m22.24 40h4.76 15v5.15c0 3.79-1.29 7.46-3.65 10.42l-.35.43h-20c-3.8-3.17-6-7.86-6-12.81v-3.19-9.34c0-2.02 1.64-3.66 3.66-3.66.6 0 1.18.15 1.68.41.29.15.55.34.78.55.66.59 1.1 1.42 1.18 2.37l.7 7.67.8.6c.54.41 1.03.88 1.44 1.4z" fill="#f0d0b4"/></g></g><g><path d="m39 17.781 2 .5v2.719c0 1.654 1.346 3 3 3h2c1.654 0 3-1.346 3-3v-.719l8 2v-14.562l-18 4.5zm8 3.219c0 .551-.449 1-1 1h-2c-.551 0-1-.449-1-1v-2.219l4 1zm-2-3.781v-4.438l6-1.5v7.438zm10 2.5-2-.5v-8.438l2-.5zm-14-5.938 2-.5v3.438l-2-.5z"/><path d="m63 15c0-7.72-6.28-14-14-14-7.523 0-13.662 5.969-13.971 13.418-.734-.86-1.812-1.418-3.029-1.418-1.2 0-2.266.542-3 1.382-.734-.84-1.8-1.382-3-1.382s-2.266.542-3 1.382c-.734-.84-1.8-1.382-3-1.382-2.206 0-4 1.794-4 4v2h-15v22h10v2.19c0 4.71 1.869 9.161 5.158 12.46-.699.549-1.158 1.393-1.158 2.35v5h26v-5c0-1.049-.543-1.971-1.361-2.507 2.165-3 3.361-6.633 3.361-10.342v-4.151h10v-12.59c5.775-1.726 10-7.081 10-13.41zm-31 0c1.103 0 2 .897 2 2v2h-4v-2c0-1.103.897-2 2-2zm-11.125 21.583-.531-5.841c.177.156.402.258.656.258.552 0 1-.448 1-1s-.448-1-1-1c-.362 0-.665.202-.84.49-.261-1.018-.85-1.88-1.643-2.497 1.259-3.561 4.651-5.993 8.483-5.993 4.962 0 9 4.038 9 9s-4.038 9-9 9c-2.291 0-4.454-.861-6.125-2.417zm5.125-21.583c1.103 0 2 .897 2 2v2h-4v-2c0-1.103.897-2 2-2zm-8 2c0-1.103.897-2 2-2s2 .897 2 2v2h-4zm-11.101 4c-.399 1.956-1.943 3.5-3.899 3.899v-3.899zm-3.899 14.101c1.956.399 3.5 1.943 3.899 3.899h-3.899zm8-4.442v8.341h-2.08c-.44-3.059-2.861-5.48-5.92-5.92v-6.16c3.059-.44 5.48-2.861 5.92-5.92h11.773c-1.784 1.25-3.195 3.019-3.988 5.129-.337-.077-.685-.129-1.046-.129-2.569 0-4.659 2.09-4.659 4.659zm28 30.341h-22v-3c0-.551.449-1 1-1h20c.551 0 1 .449 1 1zm2-15.849c0 3.546-1.22 7.023-3.436 9.792l-.045.057h-19.128c-3.423-2.98-5.391-7.258-5.391-11.81v-12.531c0-1.466 1.193-2.659 2.659-2.659 1.384 0 2.523 1.04 2.648 2.418l.738 8.115 1.155.867c1.753 1.315 2.8 3.409 2.8 5.6h2c0-1.401-.334-2.769-.945-4h16.945zm6.101-6.151c.399-1.956 1.943-3.5 3.899-3.899v3.899zm3.899-5.92c-3.059.441-5.48 2.861-5.92 5.92h-11.775c2.834-1.992 4.695-5.28 4.695-9s-1.861-7.008-4.695-9h3.065c2.253 4.722 7.059 8 12.63 8 .681 0 1.345-.065 2-.16zm-2-6.08c-6.617 0-12-5.383-12-12s5.383-12 12-12 12 5.383 12 12-5.383 12-12 12z"/><path d="m28 25.145v-2.145h-2v2.145c-1.155.366-2 1.435-2 2.709 0 1.087.604 2.066 1.578 2.553l1.95.974c.291.146.472.439.472.765 0 .471-.383.854-.854.854h-.292c-.471 0-.854-.383-.854-.854v-1.146h-2v1.146c0 1.274.845 2.343 2 2.709v2.145h2v-2.145c1.155-.366 2-1.435 2-2.709 0-1.087-.604-2.066-1.578-2.553l-1.95-.974c-.291-.146-.472-.439-.472-.765 0-.471.383-.854.854-.854h.292c.471 0 .854.383.854.854v.146h2v-.146c0-1.274-.845-2.343-2-2.709z"/><circle cx="33" cy="30" r="1"/></g></g></svg>