<?xml version="1.0" encoding="utf-8"?>
<!-- Generator: Adobe Illustrator 23.0.1, SVG Export Plug-In . SVG Version: 6.00 Build 0)  -->
<svg version="1.1" id="Capa_1" xmlns="http://www.w3.org/2000/svg" xmlns:xlink="http://www.w3.org/1999/xlink" x="0px" y="0px"
	 viewBox="0 0 496.5 496.5" style="enable-background:new 0 0 496.5 496.5;" xml:space="preserve">
<style type="text/css">
	.st0{fill:#E95353;}
	.st1{fill:#61B5EF;}
	.st2{fill:#FFFFFF;}
	.st3{fill:#FFD782;}
	.st4{fill:#454545;}
	.st5{fill:#ED6262;}
	.st6{fill:#FFBD49;}
	.st7{fill:#6F6F6F;}
	.st8{fill:#777777;}
	.st9{fill:#3AA2EB;}
</style>
<path class="st0" d="M489.5,269.6c-0.7-14.7-6.2-28.9-15.2-40.6c-20.3-26.4-24.3-47.4-24.3-47.4c-15.9-41.8-30.1-69.6-40.5-87.2
	c-11-18.5-29.9-31-51.3-33.8c-43-5.6-177.2-5.6-220.2,0c-21.3,2.8-40.3,15.3-51.2,33.8c-10.4,17.7-24.6,45.5-40.5,87.2
	c0,0-4,21-24.3,47.4c-9,11.7-14.5,25.8-15.2,40.6c-1.5,32,7.7,39,16,111.4c0.7,5.7,5.5,10,11.2,10h428.2c5.7,0,10.5-4.3,11.2-10
	c2.3-20.3,9.2-61.5,9.2-61.5C488.8,299.1,490.1,282.4,489.5,269.6z"/>
<path class="st1" d="M441.1,180c-12.6-31.4-25.4-58.9-38.1-80.8c-9.7-16.6-26.7-28.1-45.6-30.6c-43.1-5.7-175.5-5.7-218.2,0
	c-18.9,2.5-35.9,14.1-45.6,30.6c-12.9,22.2-25.9,50-38.3,80.8C183.7,190.1,312.7,190.1,441.1,180z"/>
<path class="st2" d="M422.8,216.3c-4.9,1.5-9.5,3.7-13.3,5.8c-7,3.9-14.1,7.5-21.5,10.3c-12.4,4.7-14.4,11.7-14.4,11.7
	c-0.4,0.5-0.7,1-1.1,1.5c-9.4,13.9,2.9,32.4,19.5,30.1c24-3.4,43.8-10.4,53.9-14.4c5.8-2.3,10.3-7.1,11.7-13.2
	c0.1-0.6,0.3-1.1,0.4-1.7C461.7,226.5,442.2,210.3,422.8,216.3z"/>
<path class="st3" d="M448.5,327.9h-26.7c-4,0-6,4.9-3.2,7.7l26.7,26.7c2.8,2.8,7.7,0.8,7.7-3.2v-26.7
	C453,329.9,451,327.9,448.5,327.9z"/>
<path class="st4" d="M473.5,381c-0.7,5.7-5.5,10-11.2,10h-51.4v29.9c0,10.6,8.6,19.1,19.1,19.1h32.3c10.6,0,19.1-8.6,19.1-19.1
	v-93.4C479.4,340.3,475.2,366.2,473.5,381z"/>
<path class="st5" d="M496.1,159.1c-1.6-7-8.1-11.7-15.2-11.7H468c-8.3,0-15,6.7-15,15v9.2h-6.8l3.9,9.3h15c7.8,0,15.5-1.7,22.6-4.9
	C494.1,173.1,497.7,166.1,496.1,159.1z"/>
<circle class="st6" cx="431.3" cy="240.5" r="18.8"/>
<circle class="st3" cx="393.5" cy="255.3" r="13.8"/>
<polygon class="st7" points="357.6,255.3 336,293 160.5,293 138.8,255.3 "/>
<path class="st2" d="M123.9,245.6c-0.3-0.5-0.7-1-1.1-1.5c0,0-2.1-7-14.4-11.7c-7.4-2.8-14.6-6.4-21.5-10.3
	c-3.8-2.1-8.4-4.3-13.3-5.8c-19.3-6.1-38.9,10.2-35.2,30.1c0.1,0.6,0.2,1.1,0.4,1.7c1.5,6,6,10.8,11.7,13.2
	c10.1,4,29.9,11,53.9,14.4C121,278.1,133.3,259.6,123.9,245.6z"/>
<path class="st3" d="M74.7,327.9H48c-2.5,0-4.5,2-4.5,4.5v26.7c0,4,4.9,6,7.7,3.2l26.7-26.7C80.7,332.7,78.7,327.9,74.7,327.9z"/>
<path class="st8" d="M426.2,374.5c-27.8-48.2-59.8-46.7-59.8-46.7H130.1c0,0-32-1.5-59.8,46.7H22.1l0.6,6.2
	c0.5,5.8,5.4,10.3,11.2,10.3h428.6c5.8,0,10.7-4.4,11.2-10.3l0.6-6.2L426.2,374.5L426.2,374.5z"/>
<path class="st4" d="M34.1,391c-5.7,0-10.6-4.3-11.2-10c-1.7-14.8-5.8-40.7-7.9-53.6v93.4c0,10.6,8.6,19.1,19.1,19.1h32.3
	c10.6,0,19.1-8.6,19.1-19.1V391L34.1,391L34.1,391z"/>
<path class="st5" d="M43.4,171.6v-9.2c0-8.3-6.7-15-15-15H15.6c-7.1,0-13.7,4.7-15.2,11.7c-1.6,7,2,14,8.4,16.9
	c7.1,3.2,14.8,4.9,22.6,4.9h15l3.9-9.3L43.4,171.6C43.4,171.6,43.4,171.6,43.4,171.6z"/>
<circle class="st6" cx="65.1" cy="240.5" r="18.8"/>
<circle class="st3" cx="103" cy="255.3" r="13.8"/>
<g>
	<path class="st7" d="M348.3,341H148.2c-3.1,0-5.7,2.5-5.7,5.7c0,3.1,2.5,5.7,5.7,5.7h200.1c3.1,0,5.7-2.5,5.7-5.7
		C354,343.6,351.4,341,348.3,341z"/>
	<path class="st7" d="M348.3,363.6H148.2c-3.1,0-5.7,2.5-5.7,5.7c0,3.1,2.5,5.7,5.7,5.7h200.1c3.1,0,5.7-2.5,5.7-5.7
		C354,366.2,351.4,363.6,348.3,363.6z"/>
</g>
<path class="st9" d="M420.1,132v1.9c0,7.8-6.4,14.1-14.4,13.7c-7.3-0.5-13-7-13-14.5v-27.8c0-6.6-5.5-11.6-12-11.4
	c-0.2,0-0.2,0-0.3,0c0,0,0,0-0.2,0c-6.6-0.2-12,4.8-12,11.4v25.2c0,7.8-6.7,14.1-14.5,13.6c-7.3-0.3-13-7-13-14.4v-21.9
	c0-6.6-5.5-12-12.2-12h-0.9c-6.3,0-11.4,5.2-11.4,11.4v28.5c0,7.8-6.6,14-14.5,13.7c-7.3-0.5-12.8-7-12.8-14.5V96.7
	c0-6.1-5.3-11.2-11.6-10.8h-0.9c-6.4,0-11.5,5.2-11.5,11.4v39c0,7.5-6.1,13.7-13.7,13.7c-7.3,0-13.4-5.9-13.6-13.3v-32.8
	c0-7.5-5.6-14-13-14.5c-8-0.3-14.4,5.9-14.4,13.7l-0.2,30.3c0,7.8-6.4,14-14.4,13.7c-7.2-0.4-12.7-6.8-12.9-13.9V97.8
	c0-7.4-5.5-14-12.9-14.4c-7.9-0.3-14.4,5.9-14.4,13.7v37.2c-0.2,7.6-6.6,13.7-14.4,13.4c-7.3-0.5-12.8-7-12.8-14.5v-27.8
	c0-6.6-5.6-11.6-12.2-11.4c-0.2,0-0.2,0-0.2,0c-0.2,0-0.2,0-0.2,0c-6.7-0.2-12.2,4.8-12.2,11.4v25.2c0,7.8-6.6,14.1-14.4,13.6
	c-6.8-0.3-11.9-5.9-12.7-12.5c-7.2,14.9-14.4,31.1-21.3,48.4c128.4,10.1,257.4,10.1,385.8,0C434.1,162.6,427.1,146.7,420.1,132z"/>
</svg>
