<?xml version="1.0" encoding="utf-8"?>
<!-- Generator: Adobe Illustrator 23.0.1, SVG Export Plug-In . SVG Version: 6.00 Build 0)  -->
<svg version="1.1" id="Capa_1" xmlns="http://www.w3.org/2000/svg" xmlns:xlink="http://www.w3.org/1999/xlink" x="0px" y="0px"
	 viewBox="0 0 512 512" style="enable-background:new 0 0 512 512;" xml:space="preserve">
<style type="text/css">
	.st0{fill:#F58C79;}
	.st1{fill:#996459;}
	.st2{fill:#875850;}
	.st3{opacity:0.2;fill:#875850;enable-background:new    ;}
	.st4{fill:#FFD782;}
	.st5{fill:#F8A28B;}
	.st6{opacity:0.15;fill:#C17A00;enable-background:new    ;}
	.st7{fill:#495059;}
</style>
<path class="st0" d="M171,283.2c-33.1,16.6-106.8,90.4-137.9,157.9c-3.3,7.2-0.6,15.8,6.3,19.7c48,27.4,167.8,23.1,224.7,13
	c23.4-52.2,4.5-199.8,4.5-199.8L171,283.2z"/>
<path class="st1" d="M61.6,472.6c-3.5,0-7-1.2-9.9-3.6c-6.6-5.5-7.5-15.2-2-21.8c27.7-33.2,52.2-39.6,73.8-45.3
	c15.9-4.2,29.6-7.8,45.1-22.6c6.2-5.9,15.9-5.7,21.9,0.4c5.9,6.2,5.7,15.9-0.4,21.9c-21.2,20.4-41.1,25.6-58.6,30.2
	c-19.6,5.1-36.5,9.6-57.9,35.2C70.5,470.7,66.1,472.6,61.6,472.6z"/>
<path class="st2" d="M59,437c-3,3.1-6.1,6.5-9.2,10.2c-5.5,6.6-4.6,16.3,2,21.8c2.9,2.4,6.4,3.6,9.9,3.6c4.4,0,8.8-1.9,11.9-5.6
	c2.9-3.5,5.8-6.7,8.6-9.4C76.4,447.9,67.2,440.4,59,437z"/>
<g>
	<path class="st1" d="M147,511.6c-8.9,0-17.5-4.8-21.9-13.3c-6.3-12.1-1.7-27.1,10.4-33.4c28.2-14.8,42.3-33.4,54.8-49.8
		c1.4-1.9,2.8-3.7,4.1-5.4c8.4-10.8,23.9-12.8,34.7-4.5c10.8,8.4,12.8,23.9,4.5,34.7c-1.3,1.6-2.6,3.4-3.9,5.1
		c-14,18.5-33.3,43.8-71.3,63.7C154.8,510.7,150.9,511.6,147,511.6z"/>
	<path class="st1" d="M267,512c-7.1,0-14.2-3-19.1-8.9c-8.7-10.5-7.3-26.1,3.2-34.8c20.3-16.9,16.2-40,14.6-43.9
		c-5.4-12.6,0.4-27.1,13-32.5c12.6-5.4,27.1,0.4,32.5,13c9.5,22.2,10.2,69.4-28.4,101.4C278.2,510.1,272.6,512,267,512z"/>
	<path class="st1" d="M335.7,365c-12.3,0-22.9-9.1-24.5-21.6c-1.7-13.6,7.8-25.9,21.4-27.7c17.3-2.2,70.4-31.1,101.4-55.1
		c10.8-8.4,26.3-6.4,34.7,4.4c8.4,10.8,6.4,26.3-4.4,34.7c-30.9,24-93.4,61-125.4,65.1C337.8,365,336.7,365,335.7,365z"/>
</g>
<g>
	<path class="st3" d="M381.4,350.2c0.3-17.3-3.1-34.4-10-50.2c-16.6,8.6-31.2,14.8-38.8,15.8c-13.6,1.7-23.1,14.1-21.4,27.7
		c1.6,12.5,12.2,21.6,24.5,21.6c1,0,2.1-0.1,3.2-0.2C350.1,363.4,365.2,357.8,381.4,350.2z"/>
	<path class="st3" d="M278.8,391.9c-12.6,5.4-18.4,19.9-13,32.5c1.7,3.9,5.8,27-14.6,43.9c-1.5,1.3-2.8,2.6-4,4.1c0.8,0,1.6,0,2.3,0
		c22.8,0,44.9-5.5,64.5-15.8c4.9-20.3,2.3-39.7-2.8-51.7C305.9,392.3,291.3,386.5,278.8,391.9z"/>
	<path class="st3" d="M229.2,405.3c-10.8-8.4-26.4-6.4-34.7,4.5c-1.4,1.8-2.7,3.6-4.1,5.4c-7.2,9.4-14.9,19.6-25.5,29.3
		c13.9,10.4,29.8,18.2,46.9,22.9c7.1-7.9,12.9-15.5,18-22.2c1.3-1.7,2.6-3.4,3.9-5.1C242,429.2,240,413.7,229.2,405.3z"/>
	<path class="st3" d="M168.6,379.3c-14.1,13.6-26.8,17.7-41.1,21.5c4.2,7.9,9.2,15.4,15.1,22.5c1.2,1.5,2.5,2.9,3.7,4.3
		c13.6-4.4,28.3-11.2,43.7-26c6.2-5.9,6.4-15.7,0.4-21.9C184.5,373.6,174.8,373.4,168.6,379.3z"/>
</g>
<ellipse transform="matrix(0.1252 -0.9921 0.9921 0.1252 -127.1128 548.2872)" class="st4" cx="247.4" cy="346.2" rx="106" ry="114.1"/>
<g>
	<path class="st5" d="M247.7,429.1c-0.9,0-1.8,0-2.8-0.1c-12-0.9-21.8-7.2-26.8-17.5c-1.8-3.7-0.3-8.2,3.5-10
		c3.7-1.8,8.2-0.3,10,3.5c3.4,6.9,9.7,8.8,14.4,9.1c7.1,0.5,14.7-2.4,17.7-6.8c2.3-3.4,7-4.3,10.4-2c3.4,2.3,4.3,7,2,10.4
		C270.6,423.9,259.4,429.1,247.7,429.1z"/>
	<circle class="st5" cx="284.4" cy="377.8" r="42.9"/>
</g>
<path class="st6" d="M217.7,448.2c-47.5-40.5-22.6-108.1-10-137.4l8.5-67.2c-43,10.7-76.5,44.6-82,88.4
	C127.5,384.8,164,433.9,217.7,448.2z"/>
<path class="st0" d="M144.5,271.8c-18.1,2.2-29.5,47.1,9.2,50.4c52.8,4.5,106.9,10.4,129.8,24.6c4,2.5,9,2.5,13.1,0.2
	c21.7-12,60.3-11.2,72.7-13.1c28.7-4.4,15.3-49.4-2.9-48.4S144.5,271.8,144.5,271.8z"/>
<path class="st1" d="M201.6,156.9c23.3-17.5,39.9-48.1,11-96.2C183.4,12.2,136.8-2.1,99.7,0.2c-9.1,0.6-17.1,6.6-20.2,15.2
	c-12.6,35-11.9,83.6,26.6,125.2C144.2,181.8,178.2,174.4,201.6,156.9z"/>
<path class="st5" d="M77.7,20.8c-10.6,34.5-8.2,80.4,28.3,119.8c33.1,35.7,63,34.9,85.6,22.7C182.2,60.5,118,29.9,77.7,20.8z"/>
<path class="st1" d="M340.2,164.5c-21.3-19.9-34.5-52.1-0.5-96.9c34.2-45.1,82.1-54.2,118.7-47.9c9,1.6,16.3,8.4,18.5,17.3
	c8.7,36.1,2.7,84.4-40,121.6C394.5,195.4,361.5,184.4,340.2,164.5z"/>
<path class="st5" d="M478.1,42.5c6.9,35.4-0.6,80.8-41.2,116.1c-36.7,31.9-66.4,27.9-87.5,13.3C369.9,70.7,437,47.2,478.1,42.5z"/>
<path class="st4" d="M463.3,199.5c-4.8,88.7-93.8,122.8-200.9,117c-107.1-5.8-191.9-49.4-187.1-138.1
	c4.8-88.7,95.6-155.9,202.7-150.1S468.2,110.8,463.3,199.5z"/>
<path class="st6" d="M173.2,47.5C117.3,73,78.5,121.2,75.4,178.4c-4.1,76.2,57.9,119.1,143.5,133.4
	C99.3,231.3,120.8,132.9,173.2,47.5z"/>
<g>
	
		<ellipse transform="matrix(5.430134e-02 -0.9985 0.9985 5.430134e-02 13.239 370.0361)" class="st5" cx="202" cy="178" rx="28" ry="35.2"/>
	
		<ellipse transform="matrix(5.430134e-02 -0.9985 0.9985 5.430134e-02 183.0247 569.9427)" class="st5" cx="392.4" cy="188.3" rx="28" ry="35.2"/>
</g>
<g>
	<path class="st7" d="M224,158.7c-0.1,0-0.3,0-0.4,0c-4.1-0.2-7.3-3.8-7.1-7.9l0.7-12.4c0.2-4.1,3.8-7.3,7.9-7.1
		c4.1,0.2,7.3,3.8,7.1,7.9l-0.7,12.4C231.3,155.6,227.9,158.7,224,158.7z"/>
	<path class="st7" d="M373.4,166.8c-0.1,0-0.3,0-0.4,0c-4.1-0.2-7.3-3.8-7.1-7.9l0.7-12.4c0.2-4.1,3.8-7.3,7.9-7.1
		c4.1,0.2,7.3,3.8,7.1,7.9l-0.7,12.4C380.7,163.8,377.4,166.8,373.4,166.8z"/>
	<path class="st7" d="M299.6,172.4c-0.6,0-1.2,0-1.8-0.1c-9.7-0.5-18.7-5.2-24.7-12.9c-2.5-3.3-2-8,1.3-10.5c3.3-2.5,8-2,10.5,1.3
		c3.3,4.3,8.3,6.9,13.7,7.2c5.4,0.3,10.6-1.8,14.4-5.6c2.9-3,7.6-3,10.6-0.2c3,2.9,3,7.6,0.2,10.6
		C317.4,168.7,308.7,172.4,299.6,172.4z"/>
	<path class="st7" d="M152.6,179.6c-3.5,0-6.7-2.5-7.4-6.1c-0.8-4.1,1.9-8,5.9-8.8c9.8-1.9,32.9-2.4,44-0.3c4.1,0.8,6.8,4.7,6,8.8
		c-0.8,4.1-4.7,6.8-8.8,6c-9.1-1.7-30.3-1.3-38.4,0.3C153.6,179.5,153.1,179.6,152.6,179.6z"/>
	<path class="st7" d="M161.6,221.8c-2.4,0-4.8-1.2-6.3-3.4c-2.3-3.5-1.3-8.1,2.1-10.4c8.3-5.5,29.5-14.7,40.5-17
		c4-0.8,8,1.8,8.9,5.8c0.8,4.1-1.8,8-5.8,8.9c-9,1.9-28.5,10.3-35.4,14.8C164.4,221.4,163,221.8,161.6,221.8z"/>
	<path class="st7" d="M442.1,195.3c-0.7,0-1.5-0.1-2.2-0.3c-7.9-2.4-28.9-5.1-38.1-4.4c-4.2,0.3-7.7-2.8-8.1-6.9
		c-0.3-4.1,2.8-7.7,6.9-8.1c11.3-0.9,34.2,2.1,43.7,5c4,1.2,6.2,5.4,5,9.4C448.2,193.2,445.3,195.3,442.1,195.3z"/>
	<path class="st7" d="M428.6,236.3c-1.7,0-3.4-0.6-4.8-1.7c-6.4-5.2-24.8-15.7-33.5-18.6c-3.9-1.3-6.1-5.5-4.8-9.4s5.5-6.1,9.4-4.8
		c10.8,3.5,30.8,15,38.5,21.3c3.2,2.6,3.6,7.4,1,10.6C432.9,235.4,430.8,236.3,428.6,236.3z"/>
</g>
<path class="st1" d="M164.3,403.7c-20.8,0-39.7-10-49.5-26.7c-5.7-9.8-7.9-21.2-6.3-33c1.5-11.1,6.3-22.5,14.3-33.8
	c7.9-11.2,23.3-13.8,34.5-5.9c11.2,7.9,13.8,23.3,5.9,34.5c-5.6,8-5.9,12.4-5.7,13.2c0.5,0.7,3.8,2.6,8.4,2.1
	c13.6-1.4,25.8,8.4,27.2,22c1.4,13.6-8.4,25.8-22,27.2C168.9,403.6,166.6,403.7,164.3,403.7z"/>
<g>
	<path class="st0" d="M312.1,345c-25.3,12.9-56.4,19-68.6,19.7c-1.3,4.1-2,8.5-2,13.1c0,0.6,0,1.3,0,1.9c14.7-0.3,51.1-7,80.4-22.8
		C319.4,352.3,316,348.3,312.1,345z"/>
	<path class="st0" d="M327.1,381.7c0.1-1.3,0.2-2.6,0.2-3.9c0-4.4-0.7-8.6-1.9-12.6c-27.9,17.9-69.8,25.3-82.1,25.3
		c1.7,5.3,4.3,10.2,7.8,14.4C269.5,403.1,301.5,396.1,327.1,381.7z"/>
</g>
</svg>
