<?xml version="1.0" encoding="utf-8"?>
<!-- Generator: Adobe Illustrator 23.0.1, SVG Export Plug-In . SVG Version: 6.00 Build 0)  -->
<svg version="1.1" id="Capa_1" xmlns="http://www.w3.org/2000/svg" xmlns:xlink="http://www.w3.org/1999/xlink" x="0px" y="0px"
	 viewBox="0 0 342 342" style="enable-background:new 0 0 342 342;" xml:space="preserve">
<style type="text/css">
	.st0{fill:#F0D0B4;}
</style>
<path d="M215.3,86.6c-18.2,0-33.1,14.8-33.1,33.1s14.8,33.1,33.1,33.1c18.2,0,33.1-14.8,33.1-33.1S233.5,86.6,215.3,86.6z
	 M215.3,147.7c-15.4,0-28-12.5-28-28s12.5-28,28-28c15.4,0,28,12.5,28,28S230.7,147.7,215.3,147.7z"/>
<path d="M134,90.1c-16.3,0-29.6,13.3-29.6,29.6s13.3,29.6,29.6,29.6s29.6-13.3,29.6-29.6S150.3,90.1,134,90.1z M134,144.2
	c-13.5,0-24.5-11-24.5-24.5s11-24.5,24.5-24.5s24.5,11,24.5,24.5S147.5,144.2,134,144.2z"/>
<path d="M171,38.7C98.1,38.7,38.7,98.1,38.7,171h10.2c0-48,27.9-89.5,68.3-109.4v14.2c0,0,31,8,43.7,19.5
	c-18-28.3-41.1-33.4-43.4-33.9c16.2-8,34.4-12.5,53.6-12.5c67.3,0,122.1,54.8,122.1,122.1h10.2C303.3,98.1,243.9,38.7,171,38.7z"/>
<path d="M289.3,171c0-8.4-6.8-15.3-15.3-15.3c-5.1,0-9.5,2.5-12.3,6.3c-2.8-3.8-7.2-6.3-12.3-6.3c-5.1,0-9.5,2.5-12.3,6.3
	c-2.8-3.8-7.2-6.3-12.3-6.3s-9.5,2.5-12.3,6.3c-2.8-3.8-7.2-6.3-12.3-6.3c-8.4,0-15.3,6.8-15.3,15.3h-28c0-8.4-6.9-15.3-15.3-15.3
	c-5,0-9.5,2.5-12.3,6.3c-2.8-3.8-7.2-6.3-12.3-6.3s-9.5,2.5-12.3,6.3c-2.8-3.8-7.2-6.3-12.3-6.3c-5.1,0-9.5,2.5-12.3,6.3
	c-2.8-3.8-7.2-6.3-12.3-6.3c-8.4,0-15.3,6.8-15.3,15.3h-14c0,72.9,59.3,132.3,132.3,132.3S303.3,243.9,303.3,171H289.3z M78.1,189.7
	c0,5.6-4.6,10.2-10.2,10.2c-5.6,0-10.2-4.5-10.2-10.2V171c0-5.6,4.6-10.2,10.2-10.2c5.6,0,10.2,4.5,10.2,10.2V189.7z M102.7,208.3
	c0,5.6-4.6,10.2-10.2,10.2c-5.6,0-10.2-4.5-10.2-10.2V171c0-5.6,4.6-10.2,10.2-10.2c5.6,0,10.2,4.5,10.2,10.2V208.3z M127.3,224.4
	c0,5.6-4.5,10.2-10.2,10.2S107,230,107,224.4V171c0-5.6,4.6-10.2,10.2-10.2s10.2,4.5,10.2,10.2V224.4z M151.9,208.3
	c0,5.6-4.6,10.2-10.2,10.2c-5.6,0-10.2-4.5-10.2-10.2V171c0-5.6,4.6-10.2,10.2-10.2c5.6,0,10.2,4.5,10.2,10.2V208.3z M210.4,208.3
	c0,5.6-4.6,10.2-10.2,10.2c-5.6,0-10.2-4.5-10.2-10.2V171c0-5.6,4.6-10.2,10.2-10.2c5.6,0,10.2,4.5,10.2,10.2V208.3z M235,224.4
	c0,5.6-4.6,10.2-10.2,10.2s-10.2-4.5-10.2-10.2V171c0-5.6,4.5-10.2,10.2-10.2S235,165.4,235,171V224.4z M259.6,208.3
	c0,5.6-4.6,10.2-10.2,10.2c-5.6,0-10.2-4.5-10.2-10.2V171c0-5.6,4.6-10.2,10.2-10.2c5.6,0,10.2,4.5,10.2,10.2V208.3z M284.2,189.7
	c0,5.6-4.6,10.2-10.2,10.2c-5.6,0-10.2-4.5-10.2-10.2V171c0-5.6,4.6-10.2,10.2-10.2c5.6,0,10.2,4.5,10.2,10.2V189.7z"/>
<path class="st0" d="M293.1,171h-3.8c0-8.4-6.8-15.3-15.3-15.3c-5.1,0-9.5,2.5-12.3,6.3c-2.8-3.8-7.2-6.3-12.3-6.3
	c-5.1,0-9.5,2.5-12.3,6.3c-2.8-3.8-7.2-6.3-12.3-6.3s-9.5,2.5-12.3,6.3c-2.8-3.8-7.2-6.3-12.3-6.3c-8.4,0-15.3,6.8-15.3,15.3h-28
	c0-8.4-6.9-15.3-15.3-15.3c-5,0-9.5,2.5-12.3,6.3c-2.8-3.8-7.2-6.3-12.3-6.3s-9.5,2.5-12.3,6.3c-2.8-3.8-7.2-6.3-12.3-6.3
	c-5.1,0-9.5,2.5-12.3,6.3c-2.8-3.8-7.2-6.3-12.3-6.3c-8.4,0-15.3,6.8-15.3,15.3h-3.9c0-48,27.9-89.5,68.3-109.4v14.2
	c0,0,31,8,43.7,19.5c-18-28.3-41.1-33.4-43.4-33.9c16.2-8,34.4-12.5,53.6-12.5C238.3,48.9,293.1,103.7,293.1,171z"/>
<path class="st0" d="M78.1,171v18.7c0,5.6-4.6,10.2-10.2,10.2c-5.6,0-10.2-4.5-10.2-10.2V171c0-5.6,4.6-10.2,10.2-10.2
	C73.6,160.8,78.1,165.4,78.1,171z M92.6,160.8c-5.6,0-10.2,4.5-10.2,10.2v37.3c0,5.6,4.6,10.2,10.2,10.2c5.6,0,10.2-4.5,10.2-10.2
	V171C102.7,165.4,98.2,160.8,92.6,160.8z M117.2,160.8c-5.6,0-10.2,4.5-10.2,10.2v53.4c0,5.6,4.6,10.2,10.2,10.2s10.2-4.5,10.2-10.2
	V171C127.3,165.4,122.8,160.8,117.2,160.8z M141.7,160.8c-5.6,0-10.2,4.5-10.2,10.2v37.3c0,5.6,4.6,10.2,10.2,10.2
	c5.6,0,10.2-4.5,10.2-10.2V171C151.9,165.4,147.4,160.8,141.7,160.8z M200.3,160.8c-5.6,0-10.2,4.5-10.2,10.2v37.3
	c0,5.6,4.6,10.2,10.2,10.2c5.6,0,10.2-4.5,10.2-10.2V171C210.4,165.4,205.9,160.8,200.3,160.8z M224.8,160.8
	c-5.6,0-10.2,4.5-10.2,10.2v53.4c0,5.6,4.5,10.2,10.2,10.2S235,230,235,224.4V171C235,165.4,230.5,160.8,224.8,160.8z M249.4,160.8
	c-5.6,0-10.2,4.5-10.2,10.2v37.3c0,5.6,4.6,10.2,10.2,10.2c5.6,0,10.2-4.5,10.2-10.2V171C259.6,165.4,255,160.8,249.4,160.8z
	 M274,160.8c-5.6,0-10.2,4.5-10.2,10.2v18.7c0,5.6,4.6,10.2,10.2,10.2c5.6,0,10.2-4.5,10.2-10.2V171
	C284.2,165.4,279.7,160.8,274,160.8z"/>
<circle cx="141.7" cy="119.7" r="9.5"/>
<circle cx="200.9" cy="119.7" r="10.2"/>
<path d="M213.4,70.3c0,0-18.2,3-32.2,25c9.3-8.5,32.2-14.4,32.2-14.4V70.3z"/>
</svg>
