<?xml version="1.0" encoding="utf-8"?>
<!-- Generator: Adobe Illustrator 23.0.1, SVG Export Plug-In . SVG Version: 6.00 Build 0)  -->
<svg version="1.1" id="Layer_1" xmlns="http://www.w3.org/2000/svg" xmlns:xlink="http://www.w3.org/1999/xlink" x="0px" y="0px"
	 viewBox="0 0 512 512" style="enable-background:new 0 0 512 512;" xml:space="preserve">
<style type="text/css">
	.st0{fill:#F0D0B4;}
	.st1{fill:#E9E9EA;}
	.st2{fill:#B27946;}
	.st3{fill:#B4DD7F;}
	.st4{fill:#60BAE2;}
	.st5{fill:#F75C64;}
	.st6{fill:#FFCD29;}
	.st7{fill:#6DCC6D;}
	.st8{fill:#231F20;}
</style>
<g id="Layer_7">
	<path class="st0" d="M340.6,244.2c-1.2-3,0.2-6.2,3-7.4l0,0h0.2L341,230l-4.2-10.2c-1.2-3,0.2-6.2,3.2-7.4l0,0
		c-1.6-4.2-3-8.8-3.6-13.4c-0.4-2.2-0.6-4.6-0.8-6.8l0,0c0-1,0-2,0-3.2c0-3.2,0.2-6.2,0.8-9.4c0.2-1,0.4-2,0.6-3c0.8-3,1.8-6,3-8.8
		c1.6-3.6,3.4-7.8,5-12c0.4-0.8,0.6-1.8,1-2.6c1.2-3.6,2.4-7.2,3.4-10.6c1-3.6,1.8-7.4,2-11.4c0-2,0.2-4,0.2-6c0-0.2,0-0.4,0-0.6
		c-0.4-0.2-1-0.2-1.4-0.2c-40.6-1.2-62-17.4-70.4-25.4c-2-2-5.4-2-7.4,0c-0.2,0.2-0.2,0.2-0.4,0.4c-36,44.6-88.8,38.4-106.4,34.6
		c-1.4-0.4-3,0-4.2,1c1.6,10,6.8,23.4,11,32.6c2,4.4,3.2,9.2,4,14c0.2,0.8,0.2,1.8,0.2,2.6c0,0.6,0.2,1.2,0.2,1.8c0,2,0,3.8,0,5.8
		l0,0c-0.2,4.4-1,9-2.2,13.2c-0.6,2.4-1.4,4.6-2.2,6.8l0,0c3,1.2,4.4,4.6,3.2,7.4l0,0l-7,17.2h0.2c2.8,1.2,4.2,4.6,3.2,7.4
		l-4.2,12.2c15.4,36,50.8,59.2,90,59.4l0,0c38-0.2,72.6-22.2,88.6-56.6L340.6,244.2z"/>
	<path class="st1" d="M221.2,204.2c-5.6,0-10.2-4.6-10-10.2s4.6-10.2,10.2-10c5.6,0,10,4.6,10,10
		C231.2,199.8,226.8,204.2,221.2,204.2z"/>
	<path class="st1" d="M295.8,204.2c-5.6,0-10.2-4.6-10.2-10c0-5.6,4.6-10.2,10-10.2c5.6,0,10.2,4.6,10.2,10l0,0
		C306,199.6,301.4,204.2,295.8,204.2L295.8,204.2z"/>
	<path class="st2" d="M351.4,124.2L351.4,124.2c0-2,0-4,0.2-6c0-1.4,0.2-2.6,0.2-4c0.2-1.8,0.2-3.4,0.6-5.2c0.2-1.2,0.4-2.2,0.6-3.2
		s0.4-1.8,0.6-2.6c1.8-5.8,5.4-9.6,12.2-9.4c0.6,0,1.4,0.2,2,0.4c2,0.6,3.8,1.8,5,3.4c0.6,0.6,1,1.2,1.4,1.8l-10.4-24.8l-10.4-24.8
		c-2.6-6.4,0.2-13.6,6.6-16.2c0.6-0.2,1.4-0.6,2-0.6c-17.6-10.2-39.2-10.2-56.6,0.4c-10-17-28.2-27.4-48-27.4h-28.8
		c-27.2,0-53.2,11-72.2,30.4c2.2,2.4,3.4,5.2,3.4,8.4V45c0,1.6-0.4,3.2-1,4.8l-21,49.8c1.6-3.2,4.8-5.4,8.4-5.6
		c14.8-0.6,14,17.8,14.4,33.6c0,1,0,2.2,0.2,3.2c0,1.4,0.2,2.8,0.4,4l0,0c1.2-1,2.8-1.2,4.2-1c17.8,3.8,70.4,10,106.2-35
		c1.8-2.2,5.2-2.6,7.4-0.8c0.2,0.2,0.2,0.2,0.4,0.4c8.2,8,29.6,24.2,70.4,25.4C350.4,124,350.8,124.2,351.4,124.2z"/>
	<path class="st0" d="M339.8,167.6c4.6-10.6,11-26.6,11.4-36.8c0.8-16.6-1.2-37.4,14.6-36.8c3.6,0.2,6.8,2.4,8.4,5.6l-21-49.8
		c-2.6-6.4,0.4-13.6,6.6-16.4c5.8-2.4,12.6-0.2,15.6,5.2L403,86.4c9.2,17.8,11,38.4,5.2,57.4l-10.4,33.6c-0.6,3.6-0.8,7.2-0.2,10.8
		l-57.6,24c-2.6-6.4-4.2-13.2-4.6-20.2l0,0C334.8,183.6,336.4,175.2,339.8,167.6z"/>
	<path class="st0" d="M257,315.8L257,315.8c-15.2,0-30.2-3.6-43.6-10.4v29.2l19.4,43.2c1.6,3.4,4.8,5.6,8.6,5.6h32.8
		c3.6,0,6.8-2,8.4-5.2l21-43.4V304C289.4,311.8,273.4,315.8,257,315.8z"/>
	<path class="st0" d="M172.2,167.6c-4.6-10.6-11-26.6-11.4-36.8c-0.6-16.6,1.2-37.4-14.6-36.8c-3.6,0.2-6.8,2.4-8.4,5.6l21-49.8
		c2.6-6.4-0.4-13.6-6.8-16.4c-5.8-2.4-12.4-0.2-15.6,5.2L109,86.8c-9.2,17.6-11,38.2-5.2,57.2l10.4,33.6c0.6,3.6,0.8,7.2,0.2,10.8
		l57.6,23.8c2.6-6.4,4.2-13.2,4.6-20.2l0,0C177.2,183.6,175.6,175.2,172.2,167.6z"/>
	<path class="st1" d="M340,212.2l62.2-25.6c3-1.2,6.2,0.2,7.4,3.2l7,17.2l-72.8,30l-7-17.2C335.6,216.8,337,213.4,340,212.2z"/>
	<path class="st1" d="M349.4,345l-22.6,67.8c-1.8,4.4-6.6,6.4-11,4.6c-1.4-0.6-2.4-1.4-3.4-2.6l-29.8-37l21-43.4L349.4,345z"/>
	<path class="st1" d="M190.2,412.8c1.8,4.4,6.6,6.4,11,4.6c1.4-0.6,2.4-1.4,3.4-2.6l28.8-36c-0.2-0.4-0.6-0.8-0.8-1.4l-19.4-43.2
		l0,0l-45.8,10.6l0,0L190.2,412.8z"/>
	<path class="st1" d="M172,212.2l-62.2-25.6c-3-1.2-6.2,0.2-7.4,3.2l-7,17.2l72.8,30l7-17.2C176.4,216.8,175,213.4,172,212.2
		L172,212.2z"/>
	<path class="st3" d="M472.2,449.4L472.2,449.4c23.2-9.6,34.2-36,24.6-59.2l0,0l-72.6-180.4c-1.2-3-4.6-4.4-7.4-3.2l0,0l-73.2,30.2
		c-3,1.2-4.4,4.6-3.2,7.4l0,0L413,424.6C422.6,447.8,449.2,458.8,472.2,449.4z"/>
	<path class="st3" d="M39.8,449.4L39.8,449.4c-23.2-9.6-34.2-36-24.6-59.2l0,0l72.6-180.4c1.2-3,4.6-4.4,7.4-3.2l0,0l73.2,30.2
		c3,1.2,4.4,4.6,3.2,7.4l0,0L99,424.6C89.4,447.8,62.8,458.8,39.8,449.4L39.8,449.4z"/>
	<path class="st4" d="M58.2,452.8L58.2,452.8l2-0.2C59.4,452.6,58.8,452.8,58.2,452.8z"/>
	<path class="st3" d="M413.2,424.8l-29.6-73.4l-34.2-6.2L326.8,413c-1.8,4.4-6.6,6.4-11,4.6c-1.4-0.6-2.4-1.4-3.4-2.6l-29.8-37l0,0
		c-1.6,3.2-4.8,5.2-8.4,5.2h-32.8c-3.2,0-6-1.6-7.8-4.2l-28.8,36c-3,3.6-8.2,4.2-11.8,1.2c-1.2-0.8-2-2-2.6-3.4L167.8,345l-39.8,7.2
		l-29.2,72.6c-6.2,15.2-20.2,25.8-36.4,27.8l73.4-6.2c3.8-0.4,7.4,2.6,7.6,6.4c0,0.2,0,0.4,0,0.6V499c0,4.4,3.6,8,8,8h214.2
		c4.4,0,8-3.6,8-8v-45.6c0-4,3.2-7,7-7c0.2,0,0.4,0,0.6,0l63.8,5.4C430.6,448.4,418.8,438.4,413.2,424.8z"/>
	<path class="st5" d="M76,143.4h-3.6v-3.6c0-2.8-2.2-5-5-5s-5,2.2-5,5v3.6h-3.6c-2.8,0-5,2.2-5,5s2.2,5,5,5h3.6v3.6c0,2.8,2.2,5,5,5
		s5-2.2,5-5v-3.6H76c2.8,0,5-2.2,5-5S78.8,143.4,76,143.4L76,143.4z"/>
	<path class="st6" d="M403,4c0-0.4-0.2-0.6-0.2-1c-0.2-0.2-0.2-0.6-0.4-0.8c-0.2-0.2-0.4-0.6-0.6-0.8c-2-1.8-5-1.8-7,0
		c-0.2,0.2-0.4,0.4-0.6,0.8c-0.2,0.2-0.4,0.6-0.4,0.8c-0.2,0.4-0.2,0.6-0.2,1s-0.2,0.6-0.2,1s0,0.6,0.2,1c0,0.4,0.2,0.6,0.2,1
		c0.2,0.4,0.2,0.6,0.4,0.8c0.2,0.2,0.4,0.6,0.6,0.8c2,2,5,2,7,0l0,0c0.2-0.2,0.4-0.4,0.6-0.8c0.2-0.2,0.4-0.6,0.4-0.8
		c0.2-0.2,0.2-0.6,0.2-1s0-0.6,0.2-1C403,4.6,403,4.2,403,4z"/>
	<path class="st6" d="M51.6,193.2c0-0.4-0.2-0.6-0.2-1c-0.2-0.2-0.2-0.6-0.4-0.8s-0.4-0.6-0.6-0.8c-2-1.8-5-1.8-7,0
		c-0.2,0.2-0.4,0.4-0.6,0.8c-0.4,0.6-0.6,1.2-0.8,1.8s-0.2,1.4,0,2c0,0.4,0.2,0.6,0.2,1c0.2,0.4,0.2,0.6,0.4,0.8s0.4,0.6,0.6,0.8
		c2,2,5,2,7,0l0,0c0.2-0.2,0.4-0.4,0.6-0.8c0.2-0.2,0.4-0.6,0.4-0.8c0.2-0.2,0.2-0.6,0.2-1C51.8,194.4,51.8,193.8,51.6,193.2z"/>
	<path class="st4" d="M440.8,161.8c0-0.4-0.2-0.6-0.2-1c-0.2-0.2-0.2-0.6-0.4-0.8c-0.2-0.2-0.4-0.6-0.6-0.8c-2-1.8-5-1.8-7,0
		c-0.2,0.2-0.4,0.4-0.6,0.8c-0.4,0.6-0.6,1.2-0.8,1.8c-0.2,0.6-0.2,1.4,0,2c0,0.4,0.2,0.6,0.2,1c0.2,0.4,0.2,0.6,0.4,0.8
		c0.2,0.2,0.4,0.6,0.6,0.8c2,2,5,2,7,0l0,0c0.2-0.2,0.4-0.4,0.6-0.8c0.2-0.2,0.4-0.6,0.4-0.8c0.2-0.2,0.2-0.6,0.2-1
		C441,163,441,162.4,440.8,161.8z"/>
	<path class="st7" d="M452.4,42.2c-8.2-1.6-14.4-8-16-16c0-0.2-0.2-0.4-0.4-0.4c-0.2,0-0.2,0.2-0.4,0.4c-1.6,8.2-8,14.4-16,16
		c-0.2,0-0.4,0.2-0.4,0.4s0.2,0.2,0.4,0.4c8.2,1.6,14.4,8,16,16c0,0.2,0.2,0.4,0.4,0.4c0.2,0,0.2-0.2,0.4-0.4c1.6-8.2,8-14.4,16-16
		c0.2,0,0.4-0.2,0.4-0.4C452.6,42.4,452.6,42.2,452.4,42.2z"/>
	<path class="st8" d="M289.8,266.4c-1.6,0-3.2-0.8-4.2-2.2c-10.2-15-30.6-19-45.6-8.8c-3.4,2.4-6.6,5.4-8.8,8.8
		c-1.6,2.2-4.6,2.8-7,1.4s-2.8-4.6-1.4-7c13.2-19.6,39.8-24.8,59.6-11.6c4.6,3,8.4,7,11.6,11.6c1.6,2.2,1,5.4-1.4,7
		C291.8,266.2,290.8,266.4,289.8,266.4L289.8,266.4z"/>
	<path class="st8" d="M221.2,209.2c-8.4,0-15.2-6.8-15-15.2c0-8.4,6.8-15.2,15.2-15c8.4,0,15,6.8,15,15
		C236.2,202.4,229.6,209.2,221.2,209.2z M221.2,189c-1.2,0-2.4,0.4-3.2,1.2c-2.2,1.8-2.4,5-0.6,7.2s5,2.4,7.2,0.6
		c1.2-1,1.8-2.4,1.8-4c0-2.4-1.8-4.6-4.2-5C221.8,189,221.4,189,221.2,189z"/>
	<path class="st8" d="M295.8,209.2c-8.4,0-15.2-6.8-15.2-15c0-8.4,6.8-15.2,15-15.2c8.4,0,15.2,6.8,15.2,15l0,0
		C311,202.4,304.2,209.2,295.8,209.2z M295.8,189c-1.2,0-2.4,0.4-3.2,1.2c-2.2,1.8-2.4,5-0.8,7.2c1,1.2,2.4,1.8,4,1.8
		c2.8,0,5-2.2,5-5.2c0-2.4-1.8-4.6-4.2-5C296.4,189,296.2,189,295.8,189L295.8,189z"/>
	<path class="st8" d="M190.8,141.6c-8.8,0-17.6-0.8-26.2-2.6h-0.2c-2.2,1.6-5.4,1.2-7-1c-0.4-0.6-0.8-1.4-0.8-2c0,0,0-0.2,0-0.4
		c-0.6-1.6-0.6-3-0.8-4.6c0-1,0-2.2-0.2-3.2c0-1.2,0-2.4,0-3.6c-0.2-9.4-0.4-20.2-4.4-23.8c-1.4-1.2-3-1.6-4.8-1.4
		c-0.6,0-2.4,0.2-4.4,3.2c-1.4,2.4-4.6,3-6.8,1.6c-2-1.2-3-4-2-6.2l21-49.6c0.4-0.8,0.6-1.8,0.6-2.6c0-0.2,0-0.2,0-0.4
		c0-1.8-0.8-3.6-2-5c-1.8-2-1.8-5,0-7C172.6,12.6,200,1,228.6,1h28.8c19.8,0.2,38.2,9.6,49.6,25.8c18.2-9.2,39.8-8.4,57.4,2
		c2.4,1.4,3.2,4.4,1.8,6.8c-0.6,1.2-1.8,2-3.2,2.4c-2.4,0.6-4.2,2.2-5.2,4.4c-0.6,1.8-0.6,3.8,0,5.6l21,49.8c1,2.6-0.2,5.4-2.6,6.6
		c-2.2,1-4.8,0.2-6.2-2c-0.2-0.4-0.6-0.8-1-1.4c-0.6-0.8-1.6-1.4-2.4-1.8c-0.2,0-0.6-0.2-1-0.2c-3.2-0.2-5.6,0.8-7.2,5.8
		c-0.2,0.6-0.4,1.4-0.6,2.2c-0.2,1-0.4,1.8-0.4,2.8c-0.2,1.4-0.4,3-0.4,4.8c0,1.2-0.2,2.6-0.2,3.8c0,2-0.2,3.8-0.2,5.8
		c0,1.6-0.8,3-2.2,4c-1.2,1-3,1.2-4.4,0.8h-0.2c-41.4-1.2-63.8-17.4-73.6-26.8c-0.2-0.2-0.2-0.2-0.4,0l0,0
		C249.8,134.6,215.4,141.6,190.8,141.6z M165.8,129c0.2,0,0.4,0,0.8,0.2c19.4,4,67.8,9,101.2-33.2c3.6-4.4,10-5.2,14.4-1.6
		c0.2,0.2,0.6,0.4,0.8,0.8c6.8,6.6,26.2,21.8,63.4,23.8c0-0.2,0-0.4,0-0.8c0-1.4,0.2-2.8,0.2-4.2c0.2-2,0.4-3.8,0.6-5.6
		c0.2-1.4,0.4-2.6,0.6-3.6s0.6-2,0.8-3c3.2-10,9.8-12.6,15.6-12.8l-15.6-37.2c-2.6-6.2-1.4-13.2,3-18.2c-14.4-5.4-30.6-4-43.8,4
		c-2.4,1.4-5.4,0.6-6.8-1.8l0,0c-9.2-15.4-25.8-24.8-43.6-25h-28.8c-24.4,0-48,9.4-65.6,26.2c0.6,1,1,2.2,1.2,3.4
		c0.4,1.4,0.6,2.6,0.6,4c0,0.2,0,0.4,0,0.6c0,2.4-0.4,4.6-1.4,6.8L147.8,89c3.8,0,7.6,1.4,10.4,4.2c7,6.6,7.2,18.8,7.6,30.8
		c0,1.2,0,2.4,0,3.6C165.8,128,165.8,128.6,165.8,129z"/>
	<path class="st8" d="M257,320.8c-41.2,0-78.2-24.6-94.6-62.4c-0.4-1.2-0.6-2.4-0.2-3.6l4.2-12.2v-0.2l0,0v-0.2
		c0-0.4-0.2-0.6-0.4-0.8c-2.6-1-3.8-4-2.8-6.6l7-17.2v-0.2c0-0.2-0.2-0.6-0.4-0.6c-2.6-1-3.8-4-2.8-6.4c0.8-2,1.6-4.2,2-6.4
		c1.2-4,1.8-8,2.2-12.2c0.2-1.8,0.2-3.6,0-5.2c0-0.6,0-1-0.2-1.6c0-0.8-0.2-1.6-0.2-2.6c-0.6-4.4-1.8-8.6-3.6-12.8
		c-3.8-9.6-9.2-23.4-10.8-33.8c-0.2-1.8,0.4-3.6,2-4.8c2.4-1.8,5.4-2.4,8.2-1.8c19.4,4,67.8,9,101.4-33.2c3.6-4.4,10-5.2,14.4-1.6
		c0.2,0.2,0.6,0.4,0.8,0.8c7,6.8,27.4,22.8,67,24c1,0,2,0.2,2.8,0.6c2,0.6,3.4,2.6,3.4,4.8v0.4c0,2.2-0.2,4.4-0.2,6.4
		c-0.2,4.2-1,8.4-2.2,12.4c-0.8,3.4-2,7-3.6,11c-0.4,1-0.6,1.8-1,2.8c-1.6,4-3.2,8.2-5,12.4c-1.2,2.6-2,5.2-2.8,8
		c-0.2,1-0.4,1.8-0.6,2.8c-0.4,2.8-0.8,5.6-0.8,8.4c0,1,0,1.8,0,2.8c0.2,2.2,0.4,4.2,0.8,6.2c0.8,4.2,1.8,8.4,3.4,12.4
		c1,2.6-0.2,5.4-2.8,6.4c-0.4,0.2-0.6,0.6-0.4,1l0,0l7,17.2c1,2.6-0.2,5.4-2.8,6.6l0,0c-0.4,0-0.6,0.4-0.6,0.8v0.2v0.2l5.2,14.8
		c0.4,1.2,0.4,2.6-0.2,3.8C333.4,297.4,297,320.6,257,320.8z M172.6,256.2c21.2,46.6,76,67.4,122.8,46.4c19.6-8.8,35.6-24.4,45-43.8
		L336,246c-1.4-3.8-0.8-8,1.8-11l-5.6-13.6c-1.6-3.8-0.8-8,1.8-11c-1.2-3.6-2-7.2-2.6-10.8c-0.4-2.4-0.8-4.8-0.8-7.4
		c0-1.2-0.2-2.2-0.2-3.4c0-3.4,0.2-6.8,0.8-10.2c0.2-1.2,0.4-2.2,0.6-3.4c0.8-3.4,2-6.6,3.2-9.8c1.8-4,3.4-8,4.8-11.8
		c0.4-0.8,0.6-1.8,1-2.6c1.4-3.8,2.4-7.2,3.2-10.2c1-3.4,1.6-6.8,1.8-10.2c0-0.6,0-1.2,0-1.8c-39.4-2-60.8-17.4-70.2-26.6h-0.2
		c0,0-0.2,0-0.2,0.2c-36,45.2-89,40.8-108.4,37.2c2.4,9,5.6,17.6,9.4,26.2c2.2,5,3.6,10.2,4.4,15.4c0.2,1,0.2,2,0.4,3
		c0,0.8,0.2,1.4,0.2,2c0.2,2.2,0.2,4.2,0,6.4c-0.4,4.8-1.2,9.6-2.4,14.2c-0.4,1.4-0.8,2.6-1.2,3.8c2.6,3,3.4,7.4,1.8,11.2l-5.6,13.6
		c2.6,3,3.2,7.2,1.8,11L172.6,256.2z"/>
	<path class="st8" d="M455,457.8c-20.4,0-38.8-12.4-46.6-31.2L336,246.2c-2.2-5.4,0.4-11.6,5.8-14L415,202c5.4-2.2,11.8,0.4,14,5.8
		l72.6,180.4c10.6,25.6-1.8,55-27.4,65.6l0,0C468,456.4,461.6,457.8,455,457.8z M419,211.2h-0.2l-73.2,30.2c-0.4,0.2-0.6,0.6-0.4,1
		l0,0l72.6,180.4c8.4,20.6,32,30.4,52.6,21.8l0,0c20.6-8.4,30.4-32,22-52.6l-72.6-180.4C419.6,211.4,419.4,211.2,419,211.2
		L419,211.2z"/>
	<path class="st8" d="M343.8,241.8c-2,0-3.8-1.2-4.6-3.2l-7-17.2c-2.2-5.4,0.4-11.8,5.8-14l0,0l62.4-25.4c5.4-2.2,11.8,0.4,14,5.8
		l7,17.2c1,2.6-0.2,5.4-2.8,6.6l-72.8,30C345.2,241.6,344.6,241.8,343.8,241.8z M341.8,216.8c-0.4,0.2-0.6,0.6-0.4,1l5.2,12.6
		l63.6-26.2l-5.2-12.6c-0.2-0.4-0.6-0.6-1-0.4l0,0L341.8,216.8z"/>
	<path class="st8" d="M340,217.2c-2,0-3.8-1.2-4.6-3.2c-2.8-7-4.4-14.2-4.8-21.6c-0.6-9.2,1-18.4,4.8-26.8l0,0
		c6.8-15.4,10.6-27.8,11-35c0-2.2,0.2-4.4,0.2-6.6c0.2-12,0.6-24.4,7.6-30.8c2.8-2.6,6.6-4,10.4-4.2L349,51.8
		c-3.8-9,0.4-19.2,9.4-22.8c8.2-3.4,17.6-0.2,22,7.4L408,84.2c0,0,0,0.2,0.2,0.2c9.8,18.8,11.8,40.8,5.4,61.2L403.2,179
		c-0.6,3-0.6,6-0.2,9c0.2,2.2-1,4.4-3,5.2l-57.6,23.6C341.2,217,340.6,217.2,340,217.2z M365,99c-1.6-0.2-3.2,0.4-4.2,1.4
		c-3.8,3.6-4.2,14.4-4.4,23.8c0,2.4-0.2,4.6-0.2,6.8c-0.4,10.8-6.6,27-11.8,38.6l0,0c-3,7-4.4,14.6-4,22c0.2,4.6,1.2,9.4,2.6,13.8
		l49.2-20.2c-0.2-3,0-5.8,0.8-8.8c0-0.2,0-0.2,0-0.4l10.4-33.6c5.6-17.8,3.8-37-4.8-53.4l-27.4-47.8c-2-3.6-6.6-4.8-10.2-2.8
		c-3.2,1.8-4.6,5.8-3.2,9.4l21,49.8c1,2.6-0.2,5.4-2.6,6.6c-2.2,1-4.8,0.2-6.2-2c-2-3.2-3.8-3.2-4.4-3.2C365.4,99,365.2,99,365,99
		L365,99z M339.8,167.6L339.8,167.6z"/>
	<path class="st8" d="M379.8,138.2h-0.2c-2.8-0.2-4.8-2.4-4.8-5.2c0.2-5.4,0-21.4-4.4-29.6c-1.2-2.4-0.4-5.4,2.2-6.8
		c2.4-1.2,5.4-0.4,6.8,2.2l0,0c6.4,12.4,5.4,33.8,5.4,34.6C384.8,136,382.6,138.2,379.8,138.2z"/>
	<path class="st8" d="M318.8,423c-4,0-7.8-1.8-10.4-5l-29.8-37c-1.2-1.6-1.4-3.6-0.6-5.4l21-43.4c1-2,3.4-3.2,5.6-2.6l45.8,10.6
		c2.6,0.6,4.4,3.4,3.8,6c0,0.2,0,0.4-0.2,0.4l-22.6,67.8c0,0.2,0,0.2-0.2,0.2c-1.8,4.4-5.8,7.6-10.4,8.2
		C320.2,423,319.6,423,318.8,423z M288.4,377.2l27.8,34.6c1.2,1.4,3.4,1.8,4.8,0.6c0.4-0.4,0.8-0.8,1-1.2l20.8-62.4l-36.4-8.4
		L288.4,377.2z"/>
	<path class="st8" d="M198.2,423c-0.6,0-1.4,0-2-0.2c-4.8-0.6-8.8-3.8-10.4-8.2c0,0,0-0.2-0.2-0.2L163,346.6
		c-0.8-2.6,0.6-5.4,3.2-6.4c0.2,0,0.4,0,0.4-0.2l45.8-10.6c2.4-0.6,4.8,0.6,5.6,2.8l19.4,43.2c0,0.2,0.2,0.4,0.4,0.6
		c1.2,1.8,1,4.2-0.2,5.8l-28.8,36C206,421.2,202.2,423,198.2,423z M195,411c0.8,1.8,2.8,2.6,4.6,1.8c0.4-0.2,1-0.6,1.2-1l26.8-33.4
		l-17.2-38l-36.4,8.4L195,411z"/>
	<path class="st8" d="M274.2,388.2h-32.8c-5.6,0-10.8-3.4-13-8.4L209,336.6c-0.2-0.6-0.4-1.4-0.4-2v-29.2c0-2.8,2.2-5,5-5
		c0.8,0,1.6,0.2,2.2,0.6c12.8,6.4,27,9.8,41.4,9.8l0,0c15.4,0,30.6-3.8,44.2-11.2c2.4-1.4,5.4-0.4,6.8,2c0.4,0.8,0.6,1.6,0.6,2.4
		v30.6c0,0.8-0.2,1.6-0.4,2.2L287,380C284.6,385,279.6,388.2,274.2,388.2z M218.4,333.4l19,42.2c0.8,1.6,2.2,2.6,4,2.6h32.8
		c1.6,0,3.2-1,4-2.4l20.6-42.4V312c-13,5.8-27.2,8.8-41.6,8.8c-13.2,0-26.4-2.6-38.6-7.6L218.4,333.4z"/>
	<path class="st8" d="M57,457.8c-27.8,0-50.2-22.6-50.2-50.4c0-6.6,1.2-13,3.8-19L83,208c2.2-5.4,8.6-8.2,14-5.8l0,0l73.2,30.2
		c5.4,2.2,8,8.6,5.8,14l-72.6,180.4C95.8,445.4,77.4,457.8,57,457.8z M93,211.2c-0.2,0-0.6,0.2-0.6,0.4L19.8,392.2
		c-8.6,20.6,1,44.2,21.6,52.8s44.2-1,52.8-21.6c0-0.2,0.2-0.4,0.2-0.6L167,242.4c0-0.2,0-0.4,0-0.6c0-0.2-0.2-0.4-0.4-0.4
		l-73.2-30.2C93.2,211.4,93,211.2,93,211.2z"/>
	<path class="st8" d="M168.2,241.8c-0.6,0-1.2-0.2-2-0.4l-72.8-30c-2.6-1-3.8-4-2.8-6.6l7-17.2c2.2-5.4,8.6-8,14-5.8l62.4,25.8l0,0
		c5.4,2.2,8,8.6,5.8,14l-7,17.2C172,240.6,170.2,241.8,168.2,241.8z M101.8,204l63.6,26.2l5.2-12.6c0.2-0.4,0-0.8-0.4-1l-62.4-25.4
		c-0.4-0.2-0.8,0-1,0.4L101.8,204z"/>
	<path class="st8" d="M172,217.2c-0.6,0-1.2-0.2-2-0.4l-57.4-23.6c-2-0.8-3.4-3-3-5.2c0.4-3,0.4-6-0.2-9L99,145.6
		c-6.4-20.4-4.4-42.2,5.4-61.2c0,0,0-0.2,0.2-0.2l27.6-47.8C137,28,147.6,25,156,30c7.6,4.4,10.8,13.8,7.4,22l-15.6,37.2
		c3.8,0,7.6,1.4,10.4,4.2c7,6.6,7.2,18.8,7.6,30.8c0,2.2,0.2,4.4,0.2,6.6c0.4,7.2,4.2,19.6,11,35c3.6,8.4,5.4,17.6,4.8,26.8
		c-0.4,7.4-2.2,14.8-4.8,21.6C176,216,174.2,217.2,172,217.2L172,217.2z M119.8,185.2l49.2,20.2c1.4-4.4,2.2-9.2,2.6-13.8
		c0.4-7.6-0.8-15.2-4-22l0,0c-5.2-11.6-11.4-27.8-11.8-38.6c-0.2-2.2-0.2-4.6-0.2-6.8c-0.2-9.4-0.4-20.2-4.4-23.8
		c-1.4-1.2-3-1.6-4.8-1.4c-0.6,0-2.4,0.2-4.4,3.2c-1.4,2.4-4.6,3-6.8,1.6c-2-1.2-3-4-2-6.2l21-49.6c1.6-3.8-0.2-8.2-4-9.8
		c-3.4-1.4-7.6-0.2-9.4,3.2l-27.4,47.8c-8.6,16.6-10.2,35.8-4.8,53.4l10.4,33.6c0,0.2,0,0.2,0,0.4
		C119.8,179.4,120,182.4,119.8,185.2z"/>
	<path class="st8" d="M132.2,138.2c-2.6,0-4.8-2.2-5-4.8c0-1-1-22.4,5.4-34.6c1.2-2.4,4.2-3.4,6.8-2.2c2.4,1.2,3.4,4.2,2.2,6.8
		c-4.2,8.2-4.6,24.2-4.4,29.6c0.2,2.8-2,5-4.8,5.2H132.2z"/>
	<path class="st8" d="M58.2,457.8c-2.8,0-5-2.2-5-5s2.2-5,4.8-5c0.4,0,1,0,1.4,0h0.2c2.8-0.2,5.2,2,5.4,4.6c0.2,2.8-1.8,5-4.6,5.4
		l-2,0.2C58.4,457.8,58.4,457.8,58.2,457.8z"/>
	<path class="st8" d="M365.6,512H151.4c-7.2,0-13-5.8-13-13v-45.6c0-1.2-1-2-2-2h-0.2l-73.4,6.2c-2.8,0.2-5.2-1.8-5.4-4.6
		c-0.2-2.6,1.8-5,4.4-5.4c14.4-1.8,27-11.2,32.4-24.6l29.2-72.4c0.6-1.6,2-2.8,3.8-3l39.6-7.2c2.4-0.4,4.8,1,5.6,3.4l22.6,67.6
		c0.8,1.8,2.8,2.6,4.6,1.8c0.4-0.2,1-0.6,1.2-1l28.8-36c1.8-2.2,4.8-2.4,7-0.8c0.4,0.4,0.8,0.8,1,1.2c0.8,1.2,2.2,2,3.6,2H274
		c1.6,0,3.2-1,4-2.4c1.2-2.4,4.2-3.6,6.6-2.4c0.6,0.4,1.2,0.8,1.8,1.4l29.8,37c1.2,1.4,3.4,1.8,4.8,0.6c0.4-0.4,0.8-0.8,1-1.2
		l22.6-67.6c0.8-2.4,3.2-3.8,5.6-3.4l34.2,6.2c1.6,0.4,3.2,1.4,3.8,3l29.6,73.4c5,12.2,15.6,21,28.4,24c2.6,0.6,4.4,3.2,3.8,6
		c-0.6,2.4-2.8,4-5.2,3.8l-63.8-5.4c-1.2,0-2.2,0.8-2.2,2v0.2v45.6C378.6,506.2,372.8,512,365.6,512z M136.4,441.2
		c6.6,0,12,5.4,12,12l0,0v45.6c0,1.6,1.4,3,3,3h214.2c1.6,0,3-1.4,3-3v-45.6c0-6.6,5.4-12,12-12c0.4,0,0.6,0,1,0l39.4,3.2
		c-5.4-5-9.8-11.2-12.6-18l0,0L380,355.6l-27.2-4.8l-21.2,63.6c0,0.2,0,0.2-0.2,0.2c-2.8,6.8-10.6,10.2-17.4,7.4
		c-2.2-0.8-4-2.2-5.4-4l-26-32.4c-2.4,1.6-5.2,2.6-8.2,2.6h-32.8c-2.6,0-5-0.6-7.2-2L208.6,418c-4.6,5.8-13,6.6-18.8,2
		c-1.8-1.4-3.2-3.2-4-5.4c0,0,0-0.2-0.2-0.2l-21.2-63.6l-32.6,5.8l-28.2,70c-3,7-7.4,13.4-13.2,18.6l45-3.8
		C135.6,441.4,136,441.2,136.4,441.2z"/>
	<path class="st8" d="M258.6,423.4c-0.4,0-0.6,0-1-0.2c-0.4,0-0.6-0.2-1-0.2c-0.4-0.2-0.6-0.2-0.8-0.4c-0.2-0.2-0.6-0.4-0.8-0.6
		c-2-2-2-5,0-7l0,0c0.2-0.2,0.4-0.4,0.8-0.6c0.2-0.2,0.6-0.4,0.8-0.4c0.4-0.2,0.6-0.2,1-0.2c2.8-0.6,5.4,1.2,5.8,4
		c0.6,2.8-1.2,5.4-4,5.8C259.2,423.4,258.8,423.4,258.6,423.4L258.6,423.4z"/>
	<path class="st8" d="M258.6,449.6c-0.4,0-0.6,0-1-0.2c-0.4,0-0.6-0.2-1-0.2c-0.4-0.2-0.6-0.2-0.8-0.4c-0.2-0.2-0.6-0.4-0.8-0.6
		c-2-2-2-5,0-7l0,0c0.2-0.2,0.4-0.4,0.8-0.6c0.2-0.2,0.6-0.4,0.8-0.4c1.8-0.8,4-0.4,5.4,1c2,2,2,5.2,0,7
		C261.2,449,259.8,449.6,258.6,449.6L258.6,449.6z"/>
	<path class="st8" d="M258.6,475.8c-0.4,0-0.6,0-1-0.2c-0.4,0-0.6-0.2-1-0.2c-0.4-0.2-0.6-0.2-0.8-0.4c-0.2-0.2-0.6-0.4-0.8-0.6
		c-1-1-1.4-2.2-1.4-3.6c0-0.4,0-0.6,0.2-1c0-0.4,0.2-0.6,0.4-1s0.2-0.6,0.4-0.8c0.4-0.6,0.8-1,1.4-1.4c0.2-0.2,0.6-0.4,0.8-0.4
		c0.4-0.2,0.6-0.2,1-0.2c1.6-0.4,3.4,0.2,4.4,1.4c0.2,0.2,0.4,0.4,0.6,0.8c0.2,0.2,0.4,0.6,0.4,0.8c0.2,0.4,0.2,0.6,0.2,1
		s0.2,0.6,0.2,1C263.6,473.6,261.2,475.8,258.6,475.8L258.6,475.8z"/>
</g>
</svg>
