<?xml version="1.0" encoding="utf-8"?>
<!-- Generator: Adobe Illustrator 23.0.1, SVG Export Plug-In . SVG Version: 6.00 Build 0)  -->
<svg version="1.1" id="Layer_6" xmlns="http://www.w3.org/2000/svg" xmlns:xlink="http://www.w3.org/1999/xlink" x="0px" y="0px"
	 viewBox="0 0 512 512" style="enable-background:new 0 0 512 512;" xml:space="preserve">
<style type="text/css">
	.st0{fill:#87A65F;}
	.st1{fill:#B4DD7F;}
	.st2{fill:#F0D0B4;}
	.st3{fill:#B27946;}
</style>
<g>
	<g>
		<path class="st0" d="M256,327.9v48h-32V329l16-9.1l16.3,7.3L256,327.9z"/>
	</g>
	<g>
		<path class="st1" d="M176,447.9l1.3,1.4C160,467.2,160,495.9,160,495.9h-24c0,0-56,0-56-72c0-73.8,8-144,8-144l56,16L176,447.9z"
			/>
	</g>
	<g>
		<path class="st1" d="M240,439.9c-32-9.6-51.2-2.6-62.7,9.4l-1.3-1.4l-32-152l-1.2-7.8l1.2-0.2c0,0,17.2,13.8,40.3,23.3l-0.3,0.7
			v40l40-22.9v46.9h32v-48l0.3-0.7l55.7,24.7c0,0,0-38.4-22.6-70.1c4.2-7.7,7.7-16.7,10.4-27.1l4.2,1.2c144,48,136,128,136,184
			s-56,56-56,56H240V439.9z"/>
	</g>
	<g>
		<path class="st0" d="M312,351.9l-55.7-24.7l-16.3-7.3l-0.2-1.4c20.4-3.7,37.8-15.1,49.6-36.7C312,313.5,312,351.9,312,351.9
			L312,351.9z"/>
	</g>
	<g>
		<path class="st0" d="M240,319.9l-16,9.1l-40,22.9v-40l0.3-0.7c12.1,5,25.9,8.7,39.7,8.7c5.4,0,10.7-0.5,15.8-1.4L240,319.9z"/>
	</g>
	<g>
		<path class="st2" d="M240,439.9v56h-80c0,0,0-28.7,17.3-46.6C188.8,437.4,208,430.3,240,439.9L240,439.9z"/>
	</g>
	<g>
		<path class="st2" d="M289.4,281.8c-11.8,21.6-29.2,33-49.6,36.7c-5,0.9-10.3,1.4-15.8,1.4c-13.8,0-27.6-3.8-39.7-8.7
			c-23.1-9.5-40.3-23.3-40.3-23.3l-1.2,0.2L128,191.9c0,0-8-56,24-64s48,24,48,24l64-40c0,0,11,12.8,21.6,33.2
			c11.5,22.2,22.6,53.4,18.4,86.8c-1,8.2-2.5,15.8-4.2,22.8C297,265.1,293.5,274.2,289.4,281.8z"/>
	</g>
	<g>
		<path class="st2" d="M142.8,288.1l1.2,7.8l-56-16c0,0-4.7-18.9,0-40c3.9-17.8,14.5-37,40-48L142.8,288.1z"/>
	</g>
	<g>
		<path class="st3" d="M244.1,48.4l3.9-0.5l56,8c0,0,0,48-16,88l-2.4,1.2C275,124.7,264,111.9,264,111.9c-13.1,13.1-34.8,25.8-64,40
			c0,0-16-32-48-24s-24,64-24,64c-25.5,11-36.1,30.2-40,48c0,0-40-24-40-104s120-120,192-120L244.1,48.4z"/>
	</g>
</g>
<g>
	<path d="M309.2,249.3c1.1-5.2,2-10.5,2.8-16.3c4.1-32.8-5.5-63.3-16.5-86.1c16.4-41,16.6-88.9,16.6-90.9v-7l-60.9-8.7l-4-32.4H240
		c-81.7,0-200,45.6-200,128c0,67.9,27.8,97.9,39.2,107.4c-2.4,14-1.4,27.4,0.8,37c-1.1,9.7-8,75.5-8,143.6c0,79.1,63.4,80,64,80h16
		h8h80h8h136c22.1,0,64-13.4,64-64v-8.4C448.4,374.7,448.9,296.8,309.2,249.3L309.2,249.3z M56,135.9C56,64,165.9,26.6,233,24.1
		l7.1,56.9l15.9-2l-2.8-22.2l42.6,6.1c-0.6,12.3-2.7,39.3-10.7,65.2c-7.8-12.6-14.3-20.4-15-21.3l-12.2,10.4
		c0.5,0.5,45.6,54.2,38.1,113.8c-6.7,53.7-31,81-72.1,81c-33.4,0-67.9-24.9-74-29.5l-14.1-91.7c-0.1-0.5-6.3-49,18-55.1
		c25.4-6.3,38.4,18.8,38.9,19.8l14.3-7.2c-6.5-13.1-26.9-35.7-57.1-28.2c-32.1,8-31.8,51.2-30.6,67.1c-18.5,9.5-29.5,23.6-35.5,38.6
		C73.3,214.5,56,187.9,56,135.9L56,135.9z M192,322.5c6.3,2,12.8,3.6,19.6,4.5L192,338.2V322.5z M232,333.7l8.5-4.8l7.5,3.4V368h-16
		V333.7z M260.7,320.4c10.4-4.8,20.3-12.2,28.6-23.4c8.3,15.5,12,31.4,13.5,42.2L260.7,320.4z M94.9,273.6
		c-2-12.7-4.9-49.6,26.9-69.4l12.4,80.7L94.9,273.6z M136,487.9c-2,0-48-0.7-48-64c0-56.8,4.8-112.2,7-133.7l42.2,12.1L167.8,448
		c-10.6,13.5-14.1,30.2-15.3,39.9H136z M232,487.9h-63.3c1.4-10.1,5.7-27.3,18.8-37c10.6-7.9,25.6-9.6,44.5-4.9V487.9z M432,431.5
		v8.5c0,46.4-43.1,48-48,48H248v-42l138.1-38.4l-4.3-15.4l-16.4,4.6L343.8,310l-15.5,3.9l21.8,87.2L240,431.7
		c-23.7-6.6-43.2-5.3-58.3,4.1L154,304.5c6,3.7,13.5,7.9,22,11.8v49.4l40-22.9v41.1h48v-44.6l56,24.9v-12.3
		c0-1.6-0.3-38.2-21.3-70.6c2.4-5,4.5-10.5,6.4-16.5C432.8,308.7,432.4,376.7,432,431.5L432,431.5z"/>
	<path d="M425.6,145.7l-29.2-16.3l-32.9,33.5l11.4,11.2l24.3-24.7l33.2,18.7l32-65.5l-14.3-7.1L425.6,145.7z"/>
	<path d="M350.4,46.7l2.5,64.7l16-0.6l-1.7-42.5l28.9,8.4l25.4-65l-15-5.8l-20.1,51.4L350.4,46.7z"/>
	<path d="M163.6,184.8l-7.2,14.3l23.9,11.9l-11,16.5l13.3,8.9l21-31.5L163.6,184.8z"/>
	<path d="M238.4,189.2l31,10.3l5.1-15.2l-17-5.7l6.2-24.8l-15.5-3.9L238.4,189.2z"/>
	<path d="M228.2,119.3c-18-16.9-41.3-22.9-42.3-23.1l-3.9,15.5c0.2,0.1,20.3,5.2,35.2,19.2L228.2,119.3z"/>
	<path d="M253.7,106.3c-17.1-17.1-42.1-25.6-43.1-25.9l-5.1,15.2c0.2,0.1,22.4,7.6,36.9,22.1L253.7,106.3z"/>
	<path d="M223.2,290.5c-9.7,0-22.1-2.1-32.7-10.6c-2.6-2.1-4.9-4.4-7-7l11.7-9.4c1.4,1.8,3,3.4,4.7,4.7c14.2,11.5,34.6,6.1,35.4,5.9
		c13.9-3.8,21.7-13.5,24.4-17.5c3.5-5.2,5.8-11.2,6.8-17.5l14.8,2.3c-1.3,8.5-4.5,16.6-9.2,23.6c-3.6,5.4-14.1,18.5-33,23.6
		C237.9,288.9,231.5,290.5,223.2,290.5z"/>
</g>
</svg>
