<svg xmlns="http://www.w3.org/2000/svg" viewBox="0 0 222.76 375.82"><defs><style>.cls-1{fill:#fac69e;}.cls-2{fill:#ffd4ab;}.cls-23,.cls-3{fill:none;stroke:#000;}.cls-3{stroke-miterlimit:10;}.cls-4{fill:#fee1cf;}.cls-5{fill:#e2ad8d;}.cls-6{fill:#d15e05;}.cls-7{fill:#d97424;}.cls-8{fill:#aa5002;}.cls-9{fill:#cc5d01;}.cls-10{fill:#d17222;}.cls-11,.cls-14{opacity:0.1;}.cls-12{fill:#e59055;}.cls-13{fill:#fff;}.cls-14{fill:#5d5d5d;}.cls-15{fill:#333;}.cls-16{fill:#050505;}.cls-17{fill:#fcfaff;}.cls-18{fill:#021e9b;}.cls-19{fill:#0328cf;}.cls-20{fill:#050200;}.cls-21{fill:#000102;}.cls-22{fill:#f9f9f9;}.cls-23{stroke-linecap:round;stroke-linejoin:round;}</style></defs><title>wink</title><g id="Layer_2" data-name="Layer 2"><g id="Layer_1-2" data-name="Layer 1"><path class="cls-1" d="M148.05,36.85s32.35-11.91,59.6-34.27c17.23-14.14,24.45,55.2-14,72"/><path class="cls-2" d="M147.13,37.34s32.35-11.91,59.6-34.27a7,7,0,0,1,4.46-1.88c-11.08,12.52-20.1,22.37-29.52,27.72C162.55,39.79,147.13,37.34,147.13,37.34Z"/><path class="cls-3" d="M148.05,36.85s32.35-11.91,59.6-34.27c17.23-14.14,24.45,55.2-14,72"/><path class="cls-4" d="M211.09,1.25h0c15.95-2.18,18.56,57.6-17.42,73.3L187,69.05c-1.54-19.53,11.33-60.7,24.08-67.8"/><path class="cls-3" d="M211.09,1.25h0c15.95-2.18,18.56,57.6-17.42,73.3L187,69.05C185.47,49.52,198.34,8.35,211.09,1.25Z"/><path class="cls-5" d="M221.47,15.76c-3.09-.51-6.87,0-11.23,2.88-17.68,11.49-22.09,38.89-23.18,50.59l4.41,3.64,2,1.68a40.94,40.94,0,0,0,10.08-6.29C219.4,54.89,223.88,31.12,221.47,15.76Z"/><path class="cls-1" d="M74.71,36.85S42.36,24.94,15.11,2.58c-17.23-14.14-24.45,55.2,14,72"/><path class="cls-2" d="M75.63,37.34S43.28,25.43,16,3.07a7,7,0,0,0-4.46-1.88C22.65,13.71,31.66,23.56,41.09,28.91,60.21,39.79,75.63,37.34,75.63,37.34Z"/><path class="cls-3" d="M74.71,36.85S42.36,24.94,15.11,2.58c-17.23-14.14-24.45,55.2,14,72"/><path class="cls-4" d="M11.67,1.25h0C-4.28-.93-6.89,58.85,29.09,74.55l6.66-5.5c1.54-19.53-11.33-60.7-24.08-67.8"/><path class="cls-3" d="M11.67,1.25h0C-4.28-.93-6.89,58.85,29.09,74.55l6.66-5.5C37.29,49.52,24.42,8.35,11.67,1.25Z"/><path class="cls-5" d="M1.29,15.76c3.09-.51,6.87,0,11.23,2.88C30.19,30.13,34.61,57.53,35.7,69.23l-4.41,3.64-2,1.68a40.76,40.76,0,0,1-10.08-6.29C3.36,54.89-1.12,31.12,1.29,15.76Z"/><path class="cls-6" d="M50.83,44.07s.3-19.2,20.43-24.79,66.23-4.05,81,2.94A25.13,25.13,0,0,1,166.8,44.07"/><path class="cls-7" d="M152.06,22.88c-14.75-7-60.84-8.52-81-2.93S50.65,44.74,50.65,44.74h3.87c1-5.84,9-14,23.16-18.24,18.92-5.74,53.71-3.69,67.56,3.48,9.87,5.11,16.81,9.88,17.57,14.76h3.81A25.13,25.13,0,0,0,152.06,22.88Z"/><path class="cls-3" d="M50.83,44.07s.3-19.2,20.43-24.79,66.23-4.05,81,2.94A25.13,25.13,0,0,1,166.8,44.07"/><path class="cls-8" d="M33.19,138.92,22.7,163.35s4.71-6,5.24-3.85L21,184s5.46-7.37,4.85-3.74c0,0-13.24,35.28-12.89,41.17,0,0,7.44-8.28,6.59,0S5.67,262.77,5.67,262.77,18.43,246.63,16,253.25s-5.77,18.93-5.77,18.93,41.6,39.64,47.11,60.25c0,0,4.77-15.41,0-22,0,0,28.57,27.24,29.62,45.41,0,0,4.82-15.66,3.84-22.71,0,0,18.93,34.23,18.2,42.62,0,0,5.9-39.51,13.24-43.32l2.89,21s22.61-31.87,28.55-32.92c0,0-2.09,12.93-2.09,16.07,0,0,49.26-53.8,58-52.75,0,0-13.55-27.6-15.34-29.35,0,0,14.12,8.39,17.7,14.68,0,0-10.67-41.13-17.7-47.81,0,0,8.35.65,10.45,5.19,0,0-15.86-40.88-18.41-42.27,0,0,7.93,3.14,10,7,0,0-.27-20.91-4.89-29s-13.27-25.05-13.62-32.44S61.15,89,33.19,138.92"/><path class="cls-9" d="M36.34,142.85l-8.41,23.38s5.25-2.62,4.71,1c0,0-11.66,31.62-11.35,37.51,0,0,8.82-10.79,8.07-2.52s-11.77,38.44-11.77,38.44,10.54-15.54,8.41-8.92-9.66,35.89-9.66,35.89,30.38,20,35.26,40.61c0,0,5.74-8.3,1.52-14.89,0,0,30.36,27.76,31.29,45.93,0,0,3.49-15.09,2.62-22.14,0,0,20.82,33.21,20.17,41.59,0,0,9.39-39.1,15.89-42.91l5.55,16.91s21.43-25.11,26.69-26.16c0,0,3.83,9.93,3.83,13.08,0,0,27.14-41.74,34.88-40.69,0,0-9-35-10.58-36.73,0,0,13.41,3.11,16.58,9.39,0,0-15.33-41.79-21.55-48.48,0,0,12.44,4.37,14.3,8.91,0,0-19.5-45.63-21.76-47,0,0,14.51,5.9,16.37,9.74,0,0-1-13.31-3-24.22-3.72-7.62-7.22-16-7.44-20.69a.08.08,0,0,0,0,0c-.08-.19-.17-.39-.26-.58-5.85-8.18-110.19-37-141.52,5.31L32.05,145S35.87,140.73,36.34,142.85Z"/><path class="cls-10" d="M45.26,142.53S35.54,174.15,35.8,180c0,0,7.35-10.8,6.73-2.52S32.72,216,32.72,216s8.78-15.53,7-8.91-8,35.88-8,35.88,25.31,20,29.37,40.62c0,0,4.78-8.31,1.27-14.89,0,0,25.29,27.76,26.06,45.93,0,0,2.91-15.1,2.18-22.15,0,0,17.35,33.21,16.81,41.6,0,0,7.82-39.11,13.23-42.92L125.23,308s17.84-25.11,22.22-26.16c0,0,3.2,9.94,3.2,13.08,0,0,22.6-41.74,29-40.69,0,0-7.49-35-8.81-36.72,0,0,11.16,3.1,13.81,9.39,0,0-12.77-41.79-17.95-48.48,0,0,10.36,4.37,11.91,8.91,0,0-16.24-45.63-18.12-47,0,0,12.08,5.89,13.63,9.74,0,0-.82-13.14-2.44-24-19.71-9.15-90-25.19-125.12-2.12l-5.27,17.6S45.71,138.9,45.26,142.53Z"/><path class="cls-11" d="M51.37,130.17s-8.67,31.62-8.44,37.51c0,0,6.56-10.8,6-2.52s-8.74,38.43-8.74,38.43,7.83-15.53,6.24-8.91-7.17,35.88-7.17,35.88,22.58,20,26.2,40.62c0,0,4.26-8.31,1.13-14.89,0,0,22.56,27.76,23.25,45.93,0,0,2.59-15.1,1.94-22.15,0,0,15.47,33.21,15,41.6,0,0,7-39.11,11.81-42.92l4.12,16.91s15.92-25.11,19.83-26.16c0,0,2.85,9.94,2.85,13.08,0,0,20.16-41.74,25.91-40.69,0,0-6.68-35-7.85-36.72,0,0,9.95,3.1,12.31,9.39,0,0-11.39-41.79-16-48.48,0,0,9.24,4.37,10.62,8.91,0,0-14.48-45.63-16.16-47,0,0,10.78,5.89,12.16,9.74,0,0-.73-13.14-2.17-24-17.59-9.16-80.31-25.2-111.61-2.12l-4.71,17.6S51.77,126.54,51.37,130.17Z"/><path class="cls-11" d="M194.22,74.46c-9.16-24.25-27.73-22.8-27.73-22.8s-28.55-12.61-57.27-13v0H107.8v0c-28.73.42-57.28,13-57.28,13S32,50.21,22.8,74.46,62.29,93.75,69.63,99.55s-32.61,26.77-32,40.2-7.2,73.33,26.7,80.6c28.54,6.12,41,14.39,44.23,13.52,3.23.87,15.68-7.4,44.22-13.52,33.9-7.27,26.14-67.17,26.7-80.6s-25.58-26.36-18.24-32.16,42.18-8.88,33-33.13"/><path class="cls-3" d="M33.19,138.92,22.7,163.35s4.71-6,5.24-3.85L21,184s5.46-7.37,4.85-3.74c0,0-13.24,35.28-12.89,41.17,0,0,7.44-8.28,6.59,0S5.67,262.77,5.67,262.77,18.43,246.63,16,253.25s-5.77,18.93-5.77,18.93,41.6,39.64,47.11,60.25c0,0,4.77-15.41,0-22,0,0,28.57,27.24,29.62,45.41,0,0,4.82-15.66,3.84-22.71,0,0,18.93,34.23,18.2,42.62,0,0,5.9-39.51,13.24-43.32l2.89,21s22.61-31.87,28.55-32.92c0,0-2.09,12.93-2.09,16.07,0,0,49.26-53.8,58-52.75,0,0-13.55-27.6-15.34-29.35,0,0,14.12,8.39,17.7,14.68,0,0-10.67-41.13-17.7-47.81,0,0,8.35.65,10.45,5.19,0,0-15.86-40.88-18.41-42.27,0,0,7.93,3.14,10,7,0,0-.27-20.91-4.89-29s-13.27-25.05-13.62-32.44S61.15,89,33.19,138.92Z"/><path class="cls-9" d="M194.52,66.87c-9.15-24.25-27.72-22.8-27.72-22.8s-28.55-12.6-57.28-13v0H108.1v0c-28.72.42-57.27,13-57.27,13S32.25,42.62,23.1,66.87s2,38.16,9.36,44,4.87,7.9,5.43,21.33-7.2,73.34,26.7,80.61c28.54,6.12,41,3.87,44.22,3,3.23.87,15.69,3.12,44.22-3,33.91-7.27,26.14-67.18,26.71-80.61s-1.92-15.53,5.42-21.33,18.51-19.7,9.36-44"/><path class="cls-7" d="M174.86,129c.65,13,6.7,71-24.84,78-26.55,5.92-38.14,3.75-41.14,2.91-3,.84-14.6,3-41.15-2.91-31.54-7-24.31-65-24.84-78-.5-12.44-2.67-18.93-18.52-27.43a34.51,34.51,0,0,0,8.16,9.31c7.34,5.8,4.86,7.9,5.43,21.33s-7.21,73.34,26.7,80.61c28.53,6.12,41,3.87,44.22,3,3.23.87,15.68,3.12,44.22-3,33.9-7.27,26.14-67.18,26.7-80.61s-1.91-15.53,5.43-21.33a34,34,0,0,0,9.85-12.55C186.77,102.52,173.79,107.28,174.86,129Z"/><path class="cls-7" d="M23.1,76.3c9.15-22.73,27.73-21.37,27.73-21.37S79.38,43.12,108.1,42.72h1.42c28.73.4,57.28,12.21,57.28,12.21s18.57-1.36,27.72,21.37a46.24,46.24,0,0,1,3.2,12.12c.7-6,0-13.15-3.2-21.55-9.15-24.25-27.72-22.8-27.72-22.8s-28.55-12.6-57.28-13v0H108.1v0c-28.72.42-57.27,13-57.27,13S32.25,42.62,23.1,66.87c-3.16,8.4-3.89,15.55-3.2,21.55A47,47,0,0,1,23.1,76.3Z"/><path class="cls-3" d="M194.52,66.87c-9.15-24.25-27.72-22.8-27.72-22.8s-28.55-12.6-57.28-13v0H108.1v0c-28.72.42-57.27,13-57.27,13S32.25,42.62,23.1,66.87s2,38.16,9.36,44,4.87,7.9,5.43,21.33-7.2,73.34,26.7,80.61c28.54,6.12,41,3.87,44.22,3,3.23.87,15.69,3.12,44.22-3,33.91-7.27,26.14-67.18,26.71-80.61s-1.92-15.53,5.42-21.33S203.67,91.13,194.52,66.87Z"/><path class="cls-12" d="M143.33,196.93c-11.5,3.19-21.87,5.07-30.2-6.5C104.85,202,94.28,200,83.29,197.16c12.37,20.78,45.57,22,60-.23"/><path class="cls-3" d="M143.33,196.93c-11.5,3.19-21.87,5.07-30.2-6.5C104.85,202,94.28,200,83.29,197.16,95.66,217.94,128.86,219.13,143.33,196.93Z"/><path class="cls-13" d="M120.74,216h-5.87a1.46,1.46,0,0,1-1.32-1.56V194.37a1.46,1.46,0,0,1,1.32-1.56h5.87a1.45,1.45,0,0,1,1.31,1.56v20.07a1.45,1.45,0,0,1-1.31,1.56"/><path class="cls-14" d="M121.46,216h-2.65c-.32,0-.59-.7-.59-1.56V194.37c0-.86.27-1.56.59-1.56h2.65c.33,0,.59.7.59,1.56v20.07c0,.86-.26,1.56-.59,1.56"/><path class="cls-3" d="M120.74,216h-5.87a1.46,1.46,0,0,1-1.32-1.56V194.37a1.46,1.46,0,0,1,1.32-1.56h5.87a1.45,1.45,0,0,1,1.31,1.56v20.07A1.45,1.45,0,0,1,120.74,216Z"/><path class="cls-13" d="M111.76,216h-5.88a1.45,1.45,0,0,1-1.31-1.56V194.37a1.45,1.45,0,0,1,1.31-1.56h5.88a1.45,1.45,0,0,1,1.31,1.56v20.07a1.45,1.45,0,0,1-1.31,1.56"/><path class="cls-14" d="M107.71,216h-2.57c-.32,0-.57-.7-.57-1.56V194.37c0-.86.25-1.56.57-1.56h2.57c.31,0,.57.7.57,1.56v20.07c0,.86-.26,1.56-.57,1.56"/><path class="cls-3" d="M111.76,216h-5.88a1.45,1.45,0,0,1-1.31-1.56V194.37a1.45,1.45,0,0,1,1.31-1.56h5.88a1.45,1.45,0,0,1,1.31,1.56v20.07A1.45,1.45,0,0,1,111.76,216Z"/><path class="cls-11" d="M105.9,158a11.35,11.35,0,0,0,6.58,0c11-5.49,23-10.74,35.32-16.32-.53-2-1.05-3.77-1.57-5.77-11.91,5.89-23.46,11.16-34,16.9a9.57,9.57,0,0,1-6,0c-10.55-5.74-22.9-11.12-34.8-17-.52,2-1.17,3.8-1.76,5.75C82,147.13,94.88,152.5,105.9,158Z"/><path class="cls-1" d="M162,168.55c-10.61-13-12.08-19.39-16.78-37.47-11.9,5.9-22.79,11-33.34,16.76a9.71,9.71,0,0,1-6,0C95.24,142.1,84.36,137,72.45,131.08c-4.7,18.08-12.77,33.94-12.93,50.75-.12,11.26,3.12,24,25.71,25.93,14.16,1.21,22.14-7.45,23.58-11.17,1.45,3.72,12.31,2.87,29.61,2.39C158.61,198.43,172.3,181.26,162,168.55Z"/><path class="cls-11" d="M138.42,199c20.19-.55,33.88-17.72,23.53-30.43-.9-1.11-1.74-2.17-2.52-3.2,4.14,9.44,1.23,20.91-27.39,24.65-17.15,2.24-21.78-7.1-23.23-10.82-1.44,3.72-9.42,12.39-23.58,11.18-17-1.45-23-9-24.93-17.44a.22.22,0,0,1,0,.08q-.16,1.08-.3,2.16c-.06.41-.1.83-.14,1.24q-.09.84-.15,1.68c0,.33-.06.66-.08,1,0,.91-.09,1.83-.1,2.75-.12,11.26,3.12,24,25.71,25.93,14.16,1.21,22.14-7.45,23.58-11.17C110.26,200.31,121.12,199.46,138.42,199Z"/><path class="cls-3" d="M162,168.55c-10.61-13-12.08-19.39-16.78-37.47-11.9,5.9-22.79,11-33.34,16.76a9.71,9.71,0,0,1-6,0C95.24,142.1,84.36,137,72.45,131.08c-4.7,18.08-12.77,33.94-12.93,50.75-.12,11.26,3.12,24,25.71,25.93,14.16,1.21,22.14-7.45,23.58-11.17,1.45,3.72,12.31,2.87,29.61,2.39C158.61,198.43,172.3,181.26,162,168.55Z"/><line class="cls-13" x1="108.81" y1="196.59" x2="108.81" y2="148.01"/><line class="cls-3" x1="108.81" y1="196.59" x2="108.81" y2="148.01"/><path class="cls-1" d="M107.85,40.52c-6.68.27-11.59,4.91-13.83,11a241.22,241.22,0,0,0-8.83,31.2C82.48,95,82.3,108.18,70.77,116.68a11.82,11.82,0,0,0-2.49,3.39c-5.6,8.9-2.93,16.08,6.84,20.25,10,4.25,19.81,8.9,29.45,13.87,3.37,1.74,5.6,1.41,8.76-.25,8.54-4.48,17.11-9.06,26.09-12.49,14.08-5.36,16.68-13.39,7.2-25.1a15.8,15.8,0,0,0-2.86-3.12c-5.74-4.08-7.6-10.14-8.75-16.61-.91-5.15-1.36-10.43-2.75-15.44-2.95-10.6-5.83-21.27-9.82-31.49-2.15-5.51-7.17-9.19-14.59-9.17"/><path class="cls-11" d="M146.62,116.35a15.8,15.8,0,0,0-2.86-3.12c-5.74-4.08-7.6-10.14-8.75-16.61-.91-5.15-1.36-10.43-2.75-15.44-2.95-10.6-5.83-21.27-9.82-31.49-2-5-6.32-8.52-12.69-9.08A13.84,13.84,0,0,1,115,47.2c4,10.22,6.87,20.9,9.82,31.49,1.39,5,1.84,10.29,2.75,15.45,1.15,6.46,3,12.53,8.76,16.61a15.72,15.72,0,0,1,2.85,3.11C148.64,125.57,146,133.6,132,139c-9,3.42-17.55,8-26.09,12.48a11,11,0,0,1-4,1.38l2.7,1.36c3.37,1.74,5.6,1.41,8.76-.25,8.54-4.48,17.11-9.06,26.09-12.49C153.5,136.09,156.1,128.06,146.62,116.35Z"/><path class="cls-3" d="M107.85,40.52c-6.68.27-11.59,4.91-13.83,11a241.22,241.22,0,0,0-8.83,31.2C82.48,95,82.3,108.18,70.77,116.68a11.82,11.82,0,0,0-2.49,3.39c-5.6,8.9-2.93,16.08,6.84,20.25,10,4.25,19.81,8.9,29.45,13.87,3.37,1.74,5.6,1.41,8.76-.25,8.54-4.48,17.11-9.06,26.09-12.49,14.08-5.36,16.68-13.39,7.2-25.1a15.8,15.8,0,0,0-2.86-3.12c-5.74-4.08-7.6-10.14-8.75-16.61-.91-5.15-1.36-10.43-2.75-15.44-2.95-10.6-5.83-21.27-9.82-31.49C120.29,44.18,115.27,40.5,107.85,40.52Z"/><path class="cls-15" d="M74.18,132.6c2.37-5.1,5.93-4.15,14,3.59l-14-3.59"/><path class="cls-11" d="M129.29,136.27c7-8.21,11.08-10.34,14.15-3.79-2-4.32-9.21,2-14.15,3.79"/><path class="cls-11" d="M88.33,136.27c-7-8.21-11.08-10.34-14.15-3.79,2-4.32,9.22,2,14.15,3.79"/><path class="cls-16" d="M76.11,133.1l12.08,3.09c-3.68-3.5-6.4-5.55-8.5-6.24C78.17,130,77,131.08,76.11,133.1Z"/><path class="cls-15" d="M129.29,136.27c7.68-7.61,11.28-8.67,14.15-3.79l-14.15,3.79"/><path class="cls-9" d="M59,18.37,55.57,30S57.93,26.06,59,28.5a52.69,52.69,0,0,1,2.12,7s0-7.88,2.79-5.51c0,0,7.34,11.1,14,12.5,0,0-3.2-15.57,3.29-11.45s9.28,13,9.28,13S97.29,35.45,95.28,32c0,0,10,.79,5.58,10.71,0,0,7.8-6.34,8.66-11.66,0,0,20.78,7.7,12.92,18.66,0,0,9.34-7.21,6.85-14.2,0,0,18.22,2.9,14.15,14.2,0,0,4-15.44-4.06-18.66,0,0,8-1.52,10.83,6.54,0,0,4.89-6.62,0-10.46,0,0,3-7.72,8.41-.67,0,0-2.27-10.25-6.38-10.55,0,0,6.36-5.29,9.15,0,0,0-8.73-16-22.71-8.35,0,0-5.59-5.87-12.22-6.78,0,0,6.63,8.18.69,8.18S121.22.83,105.49.52s-24.3,3.53-24.3,3.53,10.33-2.1,10,.7c0,0-11.27,3.14-17,2.09S59,11,59,11s8.75-.35,8.75,1.39-12.57-1.13-15,3.46c0,0,6.24-3.11,6.27,2.48"/><path class="cls-10" d="M138.72,7.55S133.13,1.68,126.5.77c0,0,6.63,8.18.7,8.18S121.26.84,105.54.53,81.23,4.06,81.23,4.06s10.33-2.1,10,.7c0,0-11.27,3.14-17,2.09s-15.17,4.2-15.17,4.2,8.76-.35,8.76,1.39-12.58-1.13-15,3.46c0,0,6.23-3.11,6.26,2.48l-1.32,4.46c1.18-1.95,3.14-4.23,3.05-5.7-.1-1.65-2.07-2.65-1.77-2.7,2.08-.36,9.69.86,10.43.12,1.77-1.77.23-4.12-2.44-4.61s4.26-2.09,9.14-.39c3.21,1.12,19.65-2.69,20.41-3.8S93.29,3.08,92.29,2.7s10-1.19,18.56,1.36c7.21,2.15,10.85,7.25,13.16,8s8.82-1,9.09-2.32-1.74-5.56-2.36-6,4.88,3.5,8,6.32c1.45,1.32,6.26-1.27,8.15-1.31,3.16-.08,8,3.15,5.67,2.5s-5.08,1.81-5.29,3.75,3.66,1.86,6.29,3.73c1.4,1,3.05,3.65,4.44,5.29-1-3.05-2.9-7.86-5.7-8.06,0,0,5.95-5,8.87-.48C159.56,12.82,151.25.66,138.72,7.55Z"/><path class="cls-10" d="M161.15,15.42l0,.06A.21.21,0,0,1,161.15,15.42Z"/><path class="cls-10" d="M161.19,15.48q.12.19.24.42S161.35,15.74,161.19,15.48Z"/><path class="cls-8" d="M144.12,46.53a30.6,30.6,0,0,1-.59,3A9.59,9.59,0,0,0,144.12,46.53Z"/><path class="cls-8" d="M148.09,20.86c-1.86,1.4-.11,3.51.13,7s1.28,3.92-12.31-1.22c-.24-.09-.7,1.5-.43,2.87a24.71,24.71,0,0,0,1.59,4.84c-.74-1.69-8.85-4.73-9.67-4.73s-1.63,8.77-2.34,6.21c-1.69-6.05-14.35-12-16.42-12-2.24,0-4.47,11.3-4.94,7.25s-13.24-5.65-11.91-4.4-1.4,11.74-1,7.92-8.9-9.13-13-9.13c-2.41,0-6,3.5-5.3,7.36.86,4.51-7.84-8.29-9.08-8.29s-3.28,4.85-2.77,3.24c.2-.63-1-.72-1.7-2.17-.49-1.09-.44-2.81-.94-3.71l-2.37,8S58,25.94,59.1,28.39a52.26,52.26,0,0,1,2.12,7s0-7.88,2.79-5.51c0,0,7.34,11.1,14,12.5,0,0-3.2-15.56,3.29-11.45S90.56,44,90.56,44s6.82-8.62,4.81-12.1c0,0,10,.79,5.58,10.71,0,0,7.8-6.34,8.66-11.66,0,0,20.78,7.71,12.92,18.66,0,0,9.34-7.21,6.85-14.2,0,0,14.87,2.37,14.74,11.16.7-4.66,1.13-13.3-4.65-15.62,0,0,8-1.51,10.83,6.54,0,0,4.89-6.62,0-10.46,0,0,3-7.72,8.41-.67a35.27,35.27,0,0,0-1.28-4.22C154.14,20.25,149.5,19.8,148.09,20.86Z"/><path class="cls-3" d="M59,18.37,55.57,30S57.93,26.06,59,28.5a52.69,52.69,0,0,1,2.12,7s0-7.88,2.79-5.51c0,0,7.34,11.1,14,12.5,0,0-3.2-15.57,3.29-11.45s9.28,13,9.28,13S97.29,35.45,95.28,32c0,0,10,.79,5.58,10.71,0,0,7.8-6.34,8.66-11.66,0,0,20.78,7.7,12.92,18.66,0,0,9.34-7.21,6.85-14.2,0,0,18.22,2.9,14.15,14.2,0,0,4-15.44-4.06-18.66,0,0,8-1.52,10.83,6.54,0,0,4.89-6.62,0-10.46,0,0,3-7.72,8.41-.67,0,0-2.27-10.25-6.38-10.55,0,0,6.36-5.29,9.15,0,0,0-8.73-16-22.71-8.35,0,0-5.59-5.87-12.22-6.78,0,0,6.63,8.18.69,8.18S121.22.83,105.49.52s-24.3,3.53-24.3,3.53,10.33-2.1,10,.7c0,0-11.27,3.14-17,2.09S59,11,59,11s8.75-.35,8.75,1.39-12.57-1.13-15,3.46C52.74,15.89,59,12.78,59,18.37Z"/><path class="cls-11" d="M53.33,82c.69-.15,3,2.27,4.4,8.85a16.63,16.63,0,0,1-2.74,12c-3.46,4.64-10.22,7.63-17.24,7.63-10.57,0-19.16-9.2-19.16-20.51C18.59,78.28,32.45,86.58,53.33,82Z"/><path class="cls-9" d="M53.24,81.6c11.05,22.93-8.28,27.29-19,27.29s-24.12-8.23-14.7-26.32"/><path class="cls-3" d="M53.24,81.6c11.05,22.93-8.28,27.29-19,27.29s-24.12-8.23-14.7-26.32"/><path class="cls-11" d="M179.66,77.47c-10.53,0-18.07,9.12-19.47,15.7a12.7,12.7,0,0,0,2.23,10.5c3.46,4.64,10.22,7.64,17.24,7.64,10.57,0,19.16-9.21,19.16-20.52C198.82,79.09,189.61,77.47,179.66,77.47Z"/><path class="cls-17" d="M162.91,92.28c-2.38,10.43,9,17,19.68,17A19.36,19.36,0,0,0,202,89.91c0-10.7-8.67-12.44-19.37-12.44S164.33,86,162.91,92.28"/><path class="cls-18" d="M182.34,102.31c-6.11,0-12.44-2.15-16.3-5.94a14.66,14.66,0,0,1,.2-1.57c1.16-6.48,7.33-15.29,16-15.29s15.78,1.8,15.78,12.83c0,.68,0,1.35-.08,2A19.33,19.33,0,0,1,182.34,102.31Z"/><path class="cls-19" d="M182.37,102.31c-5.7,0-11.92-1.85-15.52-5.38,0-.48.37-1.9.46-2.4,1.09-6,6.83-14.24,14.95-14.24S197,82,197,92.24c0,.64-.1,2.72-.15,3.34C193.54,100.07,188.36,102.31,182.37,102.31Z"/><path class="cls-20" d="M164.81,102.32a11.6,11.6,0,0,1-2.31-10.13c1.45-6.34,9.23-15.13,20.09-15.13,10.28,0,19.78,1.55,19.78,12.85a19.8,19.8,0,0,1-19.78,19.77C175.36,109.68,168.37,106.79,164.81,102.32Zm-1.5-9.94a10.82,10.82,0,0,0,2.14,9.43c3.42,4.28,10.15,7,17.14,7a19,19,0,0,0,18.95-18.94c0-10-7.57-12-18.95-12C172.16,77.89,164.69,86.3,163.31,92.38Z"/><path class="cls-11" d="M163.17,92.38c1.17-5.15,6.47-11.8,14.23-14a21.29,21.29,0,0,0-11,14c-1.51,7.66,3.07,13.33,9.31,16.08C167.75,106.22,161.33,100.46,163.17,92.38Z"/><path class="cls-18" d="M176.61,92.59c0,2.52,2.72,4.56,6.08,4.56s6.08-2,6.08-4.56S186.05,88,182.69,88,176.61,90.07,176.61,92.59Z"/><path class="cls-21" d="M177.17,92.59c0,2.28,2.47,4.13,5.52,4.13s5.52-1.85,5.52-4.13-2.47-4.14-5.52-4.14S177.17,90.3,177.17,92.59Z"/><ellipse class="cls-22" cx="178.5" cy="90.91" rx="2.54" ry="1.9"/><path class="cls-16" d="M141.3,133c-4,1-7.81,2.19-12,3.26,3.68-3.5,6.33-5.71,8.43-6.41C139.23,129.94,140.36,131,141.3,133Z"/><path class="cls-8" d="M208.36,89.64s-26.91-35.21-47.05-9.89c0,0,7.25-45.89,47.05,9.89"/><path class="cls-9" d="M204.12,84.83a61.6,61.6,0,0,1,4.24,4.81c-39.8-55.78-47.05-9.89-47.05-9.89.32-.41.65-.8,1-1.18C166.69,69.85,178.87,55.24,204.12,84.83Z"/><path class="cls-23" d="M208.36,89.64s-26.91-35.21-47.05-9.89C161.31,79.75,168.56,33.86,208.36,89.64Z"/><path class="cls-8" d="M11.74,79.19s40.55-17.87,46,14c0,0,15.77-43.7-46-14"/><path class="cls-9" d="M17.77,77a62.21,62.21,0,0,0-6,2.17c61.76-29.68,46,14,46,14-.09-.51-.19-1-.29-1.51C57.79,81.94,54.16,63.26,17.77,77Z"/><path class="cls-23" d="M11.74,79.19s40.55-17.87,46,14C57.73,93.21,73.5,49.51,11.74,79.19Z"/><path class="cls-3" d="M24.39,85.63,55.8,95.52c-17.67,10.2-34.73-2.85-34.73-2.85"/></g></g></svg>